SplineFontDB: 3.0
FontName: Fabrik
FullName: FabrikNormal
FamilyName: Fabrik
Weight: Normal
Copyright: OFL Open Font License\n
Version: Version 1.5 (20.02.2010)
DefaultBaseFilename: fabrik_n
ItalicAngle: 0
UnderlinePosition: -125
UnderlineWidth: 50
Ascent: 800
Descent: 200
LayerCount: 2
Layer: 0 1 "Back" 
Layer: 1 1 "Fore" 
XUID: [1021 639 1133821918 5829147]
UniqueID: 4066438
FSType: 0
OS2Version: 0
OS2_WeightWidthSlopeOnly: 0
OS2_UseTypoMetrics: 0
CreationTime: 1256911458
ModificationTime: 1266667818
PfmFamily: 17
TTFWeight: 400
TTFWidth: 5
LineGap: 90
VLineGap: 90
OS2TypoAscent: 0
OS2TypoAOffset: 1
OS2TypoDescent: 0
OS2TypoDOffset: 1
OS2TypoLinegap: 90
OS2WinAscent: 0
OS2WinAOffset: 1
OS2WinDescent: 0
OS2WinDOffset: 1
HheadAscent: 0
HheadAOffset: 1
HheadDescent: 0
HheadDOffset: 1
OS2Vendor: 'PfEd'
Lookup: 4 0 1 "'liga' Standard Ligatures in Latin lookup 0"  {"'liga' Standard Ligatures in Latin lookup 0 subtable"  } ['liga' ('latn' <'dflt' > ) ]
Lookup: 4 0 0 "'dlig' optionale Ligaturen in Latin lookup 1"  {"'dlig' optionale Ligaturen in Latin lookup 1 subtable"  } ['dlig' ('latn' <'dflt' > ) ]
Lookup: 258 0 0 "'kern' Horizontales Kerning in Latin lookup 0"  {"'kern' Horizontales Kerning in Latin lookup 0 subtable"  } ['kern' ('latn' <'dflt' > ) ]
DEI: 0
LangName: 1033 
Encoding: AdobeStandard
UnicodeInterp: none
NameList: Adobe Glyph List
DisplaySize: -24
AntiAlias: 1
FitToEm: 1
WinInfo: 0 32 16
BeginPrivate: 7
BlueValues 32 [-13 1 419 433 686 718 748 748 ]
OtherBlues 12 [-205 -187 ]
StdHW 4 [86]
StemSnapH 32 [20 67 77 81 86 91 444 455 467 ]
StdVW 4 [91]
StemSnapV 11 [84 91 96 ]
BlueScale 9 0.0309375
EndPrivate
TeXData: 1 0 0 368050 184025 122683 429916 1048576 122683 783286 444596 497025 792723 393216 433062 380633 303038 157286 324010 404750 52429 2506097 1059062 262144
BeginChars: 330 182

StartChar: ydieresis
Encoding: 256 255 0
Width: 500
HStem: 0 50<100 400> 483 50<100 400>
VStem: 50 50<50 483> 400 50<50 483>
LayerCount: 2
Fore
SplineSet
50 0 m 1,0,-1
 50 533 l 1,1,-1
 450 533 l 1,2,-1
 450 0 l 1,3,-1
 50 0 l 1,0,-1
100 50 m 1,4,-1
 400 50 l 1,5,-1
 400 483 l 1,6,-1
 100 483 l 1,7,-1
 100 50 l 1,4,-1
EndSplineSet
EndChar

StartChar: exclam
Encoding: 33 33 4
Width: 218
Flags: W
HStem: 0 21G<102.665 117.335> 673 20G<74 155>
VStem: 74 81<252 693>
LayerCount: 2
Fore
SplineSet
74 693 m 1,0,-1
 155 693 l 1,1,-1
 155 252 l 1,2,-1
 75 252 l 1,3,-1
 74 693 l 1,0,-1
52 60 m 0,4,5
 52 87 52 87 70 102.75 c 128,-1,6
 88 118.5 88 118.5 110 118.5 c 128,-1,7
 131.994 118.5 131.994 118.5 150 103.75 c 128,-1,8
 168 89.005 168 89.005 168 62 c 0,9,10
 168 33.005 168 33.005 150 16.5 c 128,-1,11
 132 0 132 0 110 0 c 128,-1,12
 88 0 88 0 70 16 c 128,-1,13
 52 32 52 32 52 60 c 0,4,5
EndSplineSet
EndChar

StartChar: quotedbl
Encoding: 34 34 5
Width: 340
Flags: W
HStem: 558 197.5<248 256.5>
LayerCount: 2
Fore
SplineSet
248 558 m 1,0,1
 245 571.005 245 571.005 222.5 627 c 128,-1,2
 200 682.995 200 682.995 200 699 c 0,3,4
 200 724.995 200 724.995 217.503 740.247 c 128,-1,5
 235.005 755.5 235.005 755.5 256.5 755.5 c 128,-1,6
 278.006 755.5 278.006 755.5 296.003 740.247 c 128,-1,7
 314 724.995 314 724.995 314 696 c 1,8,9
 310 672 310 672 301 649 c 128,-1,10
 292.011 626.034 292.011 626.034 285.5 614.5 c 128,-1,11
 279.047 603.069 279.047 603.069 265 583 c 128,-1,12
 251 563 251 563 248 558 c 1,0,1
74 558 m 1,13,14
 71 571.005 71 571.005 48.5 627 c 128,-1,15
 26 682.995 26 682.995 26 699 c 0,16,17
 26 724.995 26 724.995 43.5025 740.247 c 128,-1,18
 61.005 755.5 61.005 755.5 82.5 755.5 c 128,-1,19
 104.006 755.5 104.006 755.5 122.003 740.247 c 128,-1,20
 140 724.995 140 724.995 140 696 c 1,21,22
 136 672 136 672 127 649 c 128,-1,23
 118.011 626.034 118.011 626.034 111.5 614.5 c 128,-1,24
 105.047 603.069 105.047 603.069 91 583 c 128,-1,25
 77 563 77 563 74 558 c 1,13,14
EndSplineSet
EndChar

StartChar: numbersign
Encoding: 35 35 6
Width: 455
Flags: W
HStem: 219 87<47 105 182 272 350 408> 389 91<47 105 182 272 350 408>
VStem: 105 77<70 219 306 389 480 620> 272 78<70 219 306 389 480 620>
LayerCount: 2
Fore
SplineSet
105 620 m 1,0,-1
 182 620 l 1,1,-1
 182 480 l 1,2,-1
 272 480 l 1,3,-1
 272 620 l 1,4,-1
 350 620 l 1,5,-1
 350 480 l 1,6,-1
 408 480 l 1,7,-1
 408 389 l 1,8,-1
 350 389 l 1,9,-1
 350 306 l 1,10,-1
 408 306 l 1,11,-1
 408 219 l 1,12,-1
 350 219 l 1,13,-1
 350 70 l 1,14,-1
 272 70 l 1,15,-1
 272 219 l 1,16,-1
 182 219 l 1,17,-1
 182 70 l 1,18,-1
 105 70 l 1,19,-1
 105 219 l 1,20,-1
 47 219 l 1,21,-1
 47 306 l 1,22,-1
 105 306 l 1,23,-1
 105 390 l 1,24,-1
 47 390 l 1,25,-1
 47 480 l 1,26,-1
 105 480 l 1,27,-1
 105 620 l 1,0,-1
182 389 m 1,28,-1
 182 306 l 1,29,-1
 272 306 l 1,30,-1
 272 389 l 1,31,-1
 182 389 l 1,28,-1
EndSplineSet
EndChar

StartChar: dollar
Encoding: 36 36 7
Width: 733
Flags: W
VStem: 169.48 398.28<111 237>
LayerCount: 2
Fore
SplineSet
330.98 750 m 1,0,-1
 405.76 750 l 1,1,-1
 393.79 682 l 1,2,3
 460.585 682 460.585 682 507.45 640 c 1,4,-1
 466.57 578 l 1,5,6
 429.377 602.19 429.377 602.19 390.95 608.52 c 128,-1,7
 352.52 614.85 352.52 614.85 319.28 596.67 c 128,-1,8
 286.055 578.49 286.055 578.49 272.66 534.5 c 1,9,10
 272.66 506.949 272.66 506.949 283.432 485.344 c 128,-1,11
 294.203 463.74 294.203 463.74 316.44 449.47 c 128,-1,12
 338.609 435.239 338.609 435.239 357.796 427.211 c 128,-1,13
 376.982 419.184 376.982 419.184 404.58 410 c 128,-1,14
 431.997 400.891 431.997 400.891 440.9 395.75 c 0,15,16
 517.226 351.676 517.226 351.676 533.56 332.25 c 0,17,18
 564.4 295.605 564.4 295.605 567.76 237 c 0,19,20
 567.46 156.27 567.46 156.27 524.38 102.99 c 128,-1,21
 481.3 49.71 481.3 49.71 402.76 31 c 1,22,-1
 410.74 -30 l 1,23,-1
 335.97 -30 l 1,24,-1
 342.95 27 l 1,25,26
 260.59 31.5297 260.59 31.5297 169.48 111 c 1,27,-1
 209.35 180 l 1,28,29
 238.215 150.1 238.215 150.1 272.27 132.03 c 128,-1,30
 306.354 113.953 306.354 113.953 341.06 109.77 c 128,-1,31
 375.766 105.586 375.766 105.586 409.36 121.37 c 128,-1,32
 442.96 137.157 442.96 137.157 467.57 173 c 1,33,34
 492.14 223.505 492.14 223.505 475.12 261.26 c 128,-1,35
 458.106 299.025 458.106 299.025 407.75 321 c 0,36,37
 367.161 333.603 367.161 333.603 341.43 343.25 c 128,-1,38
 315.856 352.838 315.856 352.838 283.056 371.057 c 128,-1,39
 250.256 389.276 250.256 389.276 231.87 410 c 128,-1,40
 213.463 430.731 213.463 430.731 200.581 463.513 c 128,-1,41
 187.7 496.295 187.7 496.295 188.42 537 c 0,42,43
 189.5 597.93 189.5 597.93 233.17 635.45 c 128,-1,44
 276.85 672.965 276.85 672.965 343.94 682 c 1,45,-1
 330.98 750 l 1,0,-1
EndSplineSet
EndChar

StartChar: percent
Encoding: 37 37 8
Width: 560
Flags: W
HStem: 515 57<129.166 168.989>
VStem: 40 67<449.51 494.014> 190 69<449.716 495.66> 304 67<137.599 183.607> 454 70<138.51 184.529>
LayerCount: 2
Fore
SplineSet
107 473 m 0,0,1
 107 446 107 446 128 434.5 c 128,-1,2
 148.997 422.996 148.997 422.996 169.5 434.5 c 128,-1,3
 190 446.002 190 446.002 190 474 c 0,4,5
 190 494.004 190 494.004 177 504.5 c 128,-1,6
 163.995 515 163.995 515 148.5 515 c 128,-1,7
 133.005 515 133.005 515 120 503.5 c 128,-1,8
 107 491.999 107 491.999 107 473 c 0,0,1
40 472 m 0,9,10
 40 506 40 506 56 530 c 128,-1,11
 72.005 554 72.005 554 96.5 563 c 128,-1,12
 120.995 572 120.995 572 149.5 572 c 128,-1,13
 177.995 572 177.995 572 202.5 559.5 c 128,-1,14
 226.995 547.005 226.995 547.005 243 523 c 128,-1,15
 259.005 499 259.005 499 259 469 c 0,16,17
 259 437.005 259 437.005 243 412 c 128,-1,18
 226.995 386.995 226.995 386.995 202.5 375.25 c 128,-1,19
 177.995 363.5 177.995 363.5 149.5 363.5 c 128,-1,20
 120.984 363.5 120.984 363.5 96.5 374.25 c 128,-1,21
 72.005 385.005 72.005 385.005 56 410.5 c 128,-1,22
 39.995 436 39.995 436 40 472 c 0,9,10
371 161 m 0,23,24
 371 134 371 134 392 123 c 128,-1,25
 413.007 112.002 413.007 112.002 433.5 123.5 c 128,-1,26
 454.005 135.005 454.005 135.005 454 162 c 0,27,28
 454 187.995 454 187.995 433.5 198.5 c 128,-1,29
 413.002 208.996 413.002 208.996 392 198 c 128,-1,30
 371 187 371 187 371 161 c 0,23,24
304 160 m 0,31,32
 304 194.995 304 194.995 320.5 219 c 128,-1,33
 337 243 337 243 361 251.75 c 128,-1,34
 385.014 260.5 385.014 260.5 413.5 260.5 c 128,-1,35
 442.005 260.5 442.005 260.5 466.5 247.75 c 128,-1,36
 491.008 234.993 491.008 234.993 507.5 211.5 c 128,-1,37
 524 187.995 524 187.995 524 157 c 0,38,39
 524 124.995 524 124.995 507.5 100.5 c 128,-1,40
 491.003 76.0088 491.003 76.0088 466.5 63.75 c 128,-1,41
 442.015 51.5 442.015 51.5 413.5 51.5 c 128,-1,42
 385 51.5 385 51.5 361 62.25 c 128,-1,43
 337 73.005 337 73.005 320.5 98.5 c 128,-1,44
 304 124 304 124 304 160 c 0,31,32
462 559 m 1,45,-1
 519 500 l 1,46,-1
 86 52 l 1,47,-1
 29 111 l 1,48,-1
 462 559 l 1,45,-1
EndSplineSet
EndChar

StartChar: ampersand
Encoding: 38 38 9
Width: 520
Flags: W
HStem: -8.28999 82.34<177.212 273.57> 325.99 84.52<208.917 372.97 455.78 510.44> 545.43 86.07<229.344 293.592>
VStem: 8.99004 83.2401<172.385 248.768> 95.12 87.59<444.055 502.63> 372.97 82.81<167.265 357.409>
LayerCount: 2
Fore
SplineSet
502.94 410.51 m 2,0,-1
 510.44 410.51 l 1,1,-1
 510.44 325.99 l 1,2,-1
 455.78 325.99 l 1,3,4
 455.94 238.51 455.94 238.51 455.94 209.11 c 0,5,6
 455.94 153.073 455.94 153.073 424.39 99.92 c 0,7,8
 393.34 47.63 393.34 47.63 340.73 19.54 c 0,9,10
 288.611 -8.28999 288.611 -8.28999 229.03 -8.28999 c 0,11,12
 169.24 -8.28999 169.24 -8.28999 119.85 21.31 c 128,-1,13
 70.62 50.8 70.62 50.8 39.81 101.93 c 128,-1,14
 8.99004 153.057 8.99004 153.057 8.99004 211.1 c 128,-1,15
 8.99004 269.135 8.99004 269.135 36.6 321.08 c 128,-1,16
 64.215 373.04 64.215 373.04 110.34 402.91 c 1,17,18
 95.12 435.631 95.12 435.631 95.12 460.84 c 0,19,20
 95.12 545.365 95.12 545.365 154.51 594.43 c 0,21,22
 199.375 631.495 199.375 631.495 254.14 631.5 c 0,23,24
 290.365 631.5 290.365 631.5 325.75 615.84 c 128,-1,25
 361.122 600.207 361.122 600.207 384.61 568.54 c 1,26,-1
 323.24 507.05 l 1,27,28
 298.433 545.43 298.433 545.43 262.08 545.43 c 128,-1,29
 225.72 545.43 225.72 545.43 204.21 525.48 c 128,-1,30
 182.71 505.525 182.71 505.525 182.71 478.76 c 128,-1,31
 182.71 451.965 182.71 451.965 193.05 431.42 c 128,-1,32
 203.385 410.855 203.385 410.855 244.81 410.85 c 2,33,-1
 378.65 410.85 l 2,34,35
 463.973 410.51 463.973 410.51 502.94 410.51 c 2,0,-1
226.69 325.99 m 2,36,37
 199.747 326.005 199.747 326.005 181.32 325.37 c 0,38,39
 163.177 324.73 163.177 324.73 150.28 324.73 c 0,40,41
 129.883 324.73 129.883 324.73 111.06 286.71 c 128,-1,42
 92.2352 248.7 92.2352 248.7 92.2301 207.81 c 128,-1,43
 92.2301 166.93 92.2301 166.93 117.82 133.45 c 0,44,45
 163.225 74.05 163.225 74.05 233.27 74.05 c 0,46,47
 279.77 74.05 279.77 74.05 313.66 100.07 c 128,-1,48
 347.63 126.163 347.63 126.163 360.3 157.41 c 128,-1,49
 372.98 188.645 372.98 188.645 372.98 203.41 c 0,50,51
 372.97 213.24 372.97 213.24 372.97 325.99 c 1,52,-1
 226.69 325.99 l 2,36,37
EndSplineSet
EndChar

StartChar: quotesingle
Encoding: 169 39 10
Width: 154
Flags: W
HStem: 558 199<74 76>
VStem: 20 112<663.278 724.314>
LayerCount: 2
Fore
SplineSet
74 504 m 5,0,1
 20 585 20 585 20 645 c 4,2,3
 20 670.995 20 670.995 37.5 687 c 132,-1,4
 55 703 55 703 76 703 c 132,-1,5
 97.001 703 97.001 703 114.5 688.5 c 132,-1,6
 132.005 673.995 132.005 673.995 132 645 c 4,7,8
 132 611 132 611 113 571 c 132,-1,9
 93.9951 530.995 93.9951 530.995 74 504 c 5,0,1
EndSplineSet
EndChar

StartChar: parenleft
Encoding: 40 40 11
Width: 268
Flags: W
VStem: 40 94<54.01 567.19>
LayerCount: 2
Fore
SplineSet
40 148 m 2,0,-1
 40 326.5 l 1,1,-1
 40 502 l 2,2,3
 40 599.785 40 599.785 98 670.5 c 0,4,5
 158.374 744.104 158.374 744.104 229 775 c 1,6,-1
 229 672 l 1,7,8
 134.005 609.09 134.005 609.09 134 505 c 2,9,-1
 134 328 l 1,10,-1
 134 148 l 2,11,12
 134 34.6 134 34.6 228 -24 c 1,13,-1
 228 -136 l 1,14,15
 159 -102 159 -102 95 -26 c 0,16,17
 39.995 39.55 39.995 39.55 40 148 c 2,0,-1
EndSplineSet
EndChar

StartChar: parenright
Encoding: 41 41 12
Width: 295
Flags: W
VStem: 147 95<62.471 571>
LayerCount: 2
Fore
SplineSet
242 150 m 2,0,1
 242 49.005 242 49.005 186.5 -23.5 c 128,-1,2
 131 -95.995 131 -95.995 53 -134 c 1,3,-1
 53 -22 l 1,4,5
 147.005 37.58 147.005 37.58 147 150 c 2,6,-1
 147 330 l 1,7,-1
 147 507 l 2,8,9
 147 611.775 147 611.775 53 675 c 1,10,-1
 53 778 l 1,11,12
 132.995 742 132.995 742 187.5 673 c 128,-1,13
 241.995 604 241.995 604 242 505 c 2,14,-1
 242 329 l 1,15,-1
 242 150 l 2,0,1
EndSplineSet
EndChar

StartChar: asterisk
Encoding: 42 42 13
Width: 212
Flags: W
HStem: 370.237 7.6<385.52 392.786 407.32 412.92>
VStem: 395.32 8<379.117 385.637>
LayerCount: 2
Fore
SplineSet
85.3633 767.722 m 1,0,-1
 127.5 767.722 l 1,1,-1
 127.5 707.5 l 1,2,-1
 184.263 725.945 l 1,3,-1
 197.269 685.865 l 1,4,-1
 140.031 667.272 l 1,5,-1
 175.262 618.776 l 1,6,-1
 141.172 594.01 l 1,7,-1
 106.025 642.378 l 1,8,-1
 71.1035 594.319 l 1,9,-1
 37.0137 619.087 l 1,10,-1
 72.1484 667.453 l 1,11,-1
 15.2314 685.938 l 1,12,-1
 28.2373 726.02 l 1,13,-1
 85.3633 707.458 l 1,14,-1
 85.3633 767.722 l 1,0,-1
EndSplineSet
EndChar

StartChar: plus
Encoding: 43 43 14
Width: 495
Flags: W
HStem: 321 80<64 209 290 431>
VStem: 209 81<160 320 401 549>
LayerCount: 2
Fore
SplineSet
431 321 m 1,0,-1
 290 321 l 1,1,-1
 290 160 l 1,2,-1
 209 160 l 1,3,-1
 209 320 l 1,4,-1
 64 320 l 1,5,-1
 64 398 l 1,6,-1
 209 398 l 1,7,-1
 209 549 l 1,8,-1
 289 549 l 1,9,-1
 289 401 l 1,10,-1
 431 401 l 1,11,-1
 431 321 l 1,0,-1
EndSplineSet
EndChar

StartChar: comma
Encoding: 44 44 15
Width: 154
Flags: W
LayerCount: 2
Fore
SplineSet
20 69 m 0,0,1
 20 94.995 20 94.995 37.5 110.25 c 128,-1,2
 55.005 125.505 55.005 125.505 76.5 125.5 c 128,-1,3
 98.0059 125.5 98.0059 125.5 116 110.25 c 128,-1,4
 134 94.995 134 94.995 134 66 c 0,5,6
 134 46.005 134 46.005 125 28.5 c 128,-1,7
 116.012 11.0185 116.012 11.0185 108 0 c 128,-1,8
 100.011 -10.9874 100.011 -10.9874 81.5 -26 c 128,-1,9
 63.005 -41 63.005 -41 59 -43 c 128,-1,10
 55 -45 55 -45 39 -55 c 1,11,12
 44.0109 -48.9809 44.0109 -48.9809 50 -38.5 c 128,-1,13
 55.9686 -28.055 55.9686 -28.055 61.5 -15.5 c 128,-1,14
 66.9867 -3.0465 66.9867 -3.0465 70 7.5 c 128,-1,15
 73.0032 18.011 73.0032 18.011 72 24 c 128,-1,16
 71 30 71 30 64 28 c 0,17,18
 46.9932 23.0015 46.9932 23.0015 33.5 36 c 128,-1,19
 20 49.005 20 49.005 20 69 c 0,0,1
EndSplineSet
EndChar

StartChar: hyphen
Encoding: 45 45 16
Width: 406
Flags: W
HStem: 222 81<49 438>
LayerCount: 2
Fore
SplineSet
338 222 m 1,0,-1
 49 222 l 1,1,-1
 49 303 l 1,2,-1
 338 303 l 1,3,-1
 338 222 l 1,0,-1
EndSplineSet
EndChar

StartChar: period
Encoding: 46 46 17
Width: 190
Flags: W
HStem: 0 21G<65.665 80.335>
LayerCount: 2
Fore
SplineSet
15 60 m 0,0,1
 15 87 15 87 33 102.75 c 128,-1,2
 51 118.5 51 118.5 73 118.5 c 128,-1,3
 94.9939 118.5 94.9939 118.5 113 103.75 c 128,-1,4
 131 89.005 131 89.005 131 62 c 0,5,6
 131 33.005 131 33.005 113 16.5 c 128,-1,7
 95 0 95 0 73 0 c 128,-1,8
 51 0 51 0 33 16 c 128,-1,9
 15 32 15 32 15 60 c 0,0,1
EndSplineSet
EndChar

StartChar: slash
Encoding: 47 47 18
Width: 360
Flags: W
HStem: 0 21G<2 87> 684 20G<276 356>
VStem: 2 354<0 704>
LayerCount: 2
Fore
SplineSet
87 0 m 1,0,-1
 2 0 l 1,1,-1
 276 704 l 1,2,-1
 356 704 l 1,3,-1
 87 0 l 1,0,-1
EndSplineSet
EndChar

StartChar: zero
Encoding: 48 48 19
Width: 569
Flags: W
HStem: -10.4121 81.9824<213.494 362.958> 637.586 81.9824<213.494 362.958>
VStem: 46.0312 485.156<169.772 210.457 190.052 190.052>
LayerCount: 2
Fore
SplineSet
445.442 509.053 m 1,0,1
 434.24 564.476 434.24 564.476 390.021 601.03 c 128,-1,2
 345.801 637.586 345.801 637.586 288.609 637.586 c 0,3,4
 230.828 637.586 230.828 637.586 186.903 601.03 c 128,-1,5
 142.979 564.476 142.979 564.476 131.775 509.053 c 1,6,7
 101.706 354.578 101.706 354.578 131.775 201.282 c 1,8,9
 142.979 144.091 142.979 144.091 186.903 107.83 c 128,-1,10
 230.828 71.5703 230.828 71.5703 288.609 71.5703 c 0,11,12
 345.801 71.5703 345.801 71.5703 390.021 107.83 c 128,-1,13
 434.24 144.091 434.24 144.091 445.442 201.282 c 1,14,15
 473.743 354.578 473.743 354.578 445.442 509.053 c 1,0,1
531.188 190.052 m 1,16,17
 514.342 102.454 514.342 102.454 445.836 46.0205 c 128,-1,18
 377.33 -10.4121 377.33 -10.4121 288.609 -10.4121 c 0,19,20
 199.327 -10.4121 199.327 -10.4121 130.541 46.0205 c 128,-1,21
 61.7539 102.454 61.7539 102.454 46.0312 190.052 c 1,22,23
 14.5859 354.578 14.5859 354.578 46.0312 519.104 c 1,24,25
 61.7539 606.702 61.7539 606.702 130.541 663.135 c 128,-1,26
 199.327 719.568 199.327 719.568 288.609 719.568 c 0,27,28
 377.33 719.568 377.33 719.568 445.836 663.135 c 128,-1,29
 514.342 606.702 514.342 606.702 531.188 519.104 c 1,30,31
 562.633 354.578 562.633 354.578 531.188 190.052 c 1,16,17
EndSplineSet
EndChar

StartChar: one
Encoding: 49 49 20
Width: 289
Flags: W
HStem: 0 21G<169.5 249.5>
VStem: 169.5 80<0 510.18>
LayerCount: 2
Fore
SplineSet
169.5 510.18 m 1,0,-1
 145.1 483.9 l 1,1,-1
 80.78 540.97 l 1,2,-1
 249.5 724.67 l 1,3,-1
 249.5 0 l 1,4,-1
 169.5 0 l 1,5,-1
 169.5 510.18 l 1,0,-1
EndSplineSet
EndChar

StartChar: two
Encoding: 50 50 21
Width: 483
Flags: W
HStem: 0 81<161.648 438.81> 626.5 81.5<186.851 359.192>
VStem: 353.5 74.3209<484.264 578.065>
LayerCount: 2
Fore
SplineSet
265 626.5 m 0,0,1
 202.289 626.5 202.289 626.5 149.328 542.717 c 1,2,-1
 99.5107 601.492 l 1,3,4
 147.133 660.406 147.133 660.406 183.631 684.203 c 128,-1,5
 220.13 708 220.13 708 267.909 708 c 0,6,7
 301.809 708 301.809 708 332.324 697.985 c 128,-1,8
 362.84 687.971 362.84 687.971 388.914 667.516 c 128,-1,9
 414.987 647.062 414.987 647.062 430.404 611.057 c 128,-1,10
 445.821 575.052 445.821 575.052 445.821 527.801 c 0,11,12
 445.821 485.32 445.821 485.32 429.135 450.232 c 128,-1,13
 412.448 415.145 412.448 415.145 344.7 317.904 c 2,14,-1
 179.648 81 l 1,15,-1
 456.81 81 l 1,16,-1
 456.81 0 l 1,17,-1
 22.4453 0 l 1,18,-1
 303.092 397.108 l 2,19,20
 351.897 466.256 351.897 466.256 361.699 486.093 c 128,-1,21
 371.5 505.931 371.5 505.931 371.5 535.51 c 0,22,23
 371.5 549.554 371.5 549.554 366.68 563.832 c 128,-1,24
 361.859 578.11 361.859 578.11 350.93 592.986 c 128,-1,25
 339.999 607.861 339.999 607.861 317.733 617.181 c 128,-1,26
 295.467 626.5 295.467 626.5 265 626.5 c 0,0,1
EndSplineSet
EndChar

StartChar: three
Encoding: 51 51 22
Width: 510
Flags: W
HStem: -12.95 78.9764<155.735 288.801> 614.716 77.5944<92.92 379.776>
VStem: 404.941 77.5986<148.319 276.483>
LayerCount: 2
Fore
SplineSet
394 207 m 0,0,1
 394 361 394 361 232 361 c 0,2,-1
 169 361 l 1,3,-1
 355 615 l 1,4,-1
 93 615 l 1,5,-1
 93 692 l 1,6,-1
 500 692 l 1,7,-1
 304 420 l 1,8,9
 477 391 477 391 477 209 c 0,10,11
 477 -13 477 -13 235 -13 c 0,12,13
 147.24 -13 147.24 -13 67 43 c 1,14,-1
 115 111 l 1,15,16
 184.184 71 184.184 71 241 71 c 0,17,18
 394 71 394 71 394 207 c 0,0,1
EndSplineSet
EndChar

StartChar: four
Encoding: 52 52 23
Width: 505
Flags: W
HStem: 0 21G<325.5 408.19> 157.5 79.4004<163.06 325.5 408.19 492.18>
VStem: 327.51 79.7097<0 157.49 237.91 361.52>
LayerCount: 2
Fore
SplineSet
387.99 719.52 m 1,0,-1
 449.43 676.17 l 1,1,-1
 163.06 236.9 l 1,2,-1
 327.51 236.9 l 1,3,-1
 327.51 361.52 l 1,4,-1
 407.22 489.52 l 1,5,-1
 407.22 237.91 l 1,6,-1
 492.18 237.91 l 1,7,-1
 492.18 157.49 l 1,8,-1
 408.19 157.49 l 1,9,-1
 408.19 0 l 1,10,-1
 325.5 0 l 1,11,-1
 325.5 157.5 l 1,12,-1
 17 157.5 l 1,13,-1
 387.99 719.52 l 1,0,-1
EndSplineSet
EndChar

StartChar: five
Encoding: 53 53 24
Width: 408
Flags: W
HStem: -11.1 82.3676<111.254 277.684> 358.303 72.3672<95.9297 231.55> 616.66 79.3398<121.13 328.92>
VStem: 298.969 81.8311<118.727 290.483>
LayerCount: 2
Fore
SplineSet
298.969 210.529 m 0,0,1
 298.969 274.133 298.969 274.133 256.733 316.218 c 128,-1,2
 214.498 358.303 214.498 358.303 154.882 358.303 c 2,3,-1
 8.97168 358.303 l 1,4,-1
 49.77 696 l 1,5,-1
 50.86 696 l 1,6,-1
 49.77 696 l 1,7,-1
 328.92 696 l 1,8,-1
 328.92 616.66 l 1,9,-1
 121.13 616.66 l 1,10,-1
 95.9297 430.67 l 1,11,-1
 151.6 430.67 l 2,12,13
 256.792 430.67 256.792 430.67 314.83 372.21 c 0,14,15
 380.8 305.745 380.8 305.745 380.8 210.78 c 0,16,17
 380.8 114.998 380.8 114.998 322.562 51.9489 c 128,-1,18
 264.325 -11.1 264.325 -11.1 160.69 -11.1 c 0,19,20
 73.09 -11.1 73.09 -11.1 9.65998 43.36 c 1,21,-1
 71.7852 106.305 l 1,22,23
 117.653 71.2676 117.653 71.2676 159.787 71.2676 c 0,24,25
 224.436 71.2676 224.436 71.2676 261.703 112.551 c 128,-1,26
 298.969 153.835 298.969 153.835 298.969 210.529 c 0,0,1
EndSplineSet
EndChar

StartChar: six
Encoding: 54 54 25
Width: 527
VWidth: 990
Flags: W
HStem: -9.34863 80.2949<186.353 338.002> 351.209 80.8516<216.698 343.236>
VStem: 43.2031 77.8975<130.994 268.475> 267.739 84.1201<628.957 713.077> 403.783 79.502<131.036 287.264>
LayerCount: 2
Fore
SplineSet
263.265 -9.34863 m 128,-1,1
 173.026 -9.34863 173.026 -9.34863 108.114 53.9658 c 128,-1,2
 43.2031 117.279 43.2031 117.279 43.2031 211.334 c 0,3,4
 43.2031 255.288 43.2031 255.288 72 314 c 2,5,-1
 267.739 713.077 l 1,6,-1
 351.859 713.077 l 1,7,-1
 204.524 421.357 l 1,8,9
 227.444 432.061 227.444 432.061 263.265 432.061 c 0,10,11
 353.513 432.061 353.513 432.061 418.399 368.752 c 128,-1,12
 483.285 305.444 483.285 305.444 483.285 211.334 c 128,-1,13
 483.285 117.244 483.285 117.244 418.385 53.9482 c 128,-1,0
 353.482 -9.34863 353.482 -9.34863 263.265 -9.34863 c 128,-1,1
160.628 312.823 m 128,-1,15
 121.101 274.44 121.101 274.44 121.101 212.072 c 128,-1,16
 121.101 149.704 121.101 149.704 162.476 110.326 c 128,-1,17
 203.851 70.9463 203.851 70.9463 262.177 70.9463 c 128,-1,18
 320.504 70.9463 320.504 70.9463 362.144 110.004 c 128,-1,19
 403.783 149.062 403.783 149.062 403.783 209.149 c 128,-1,20
 403.783 269.237 403.783 269.237 364.18 310.224 c 128,-1,21
 324.573 351.209 324.573 351.209 262.365 351.209 c 128,-1,14
 200.157 351.209 200.157 351.209 160.628 312.823 c 128,-1,15
EndSplineSet
EndChar

StartChar: seven
Encoding: 55 55 26
Width: 438
Flags: W
HStem: 0 21G<5 93> 609 81<31 287>
VStem: 5 411<0 690>
LayerCount: 2
Fore
SplineSet
31 690 m 1,0,-1
 416 690 l 1,1,-1
 93 0 l 1,2,-1
 5 0 l 1,3,-1
 287 609 l 1,4,-1
 31 609 l 1,5,-1
 31 690 l 1,0,-1
EndSplineSet
EndChar

StartChar: eight
Encoding: 56 56 27
Width: 459
Flags: W
HStem: -3.47656 78.5215<183.583 279.229> 342.405 53.3877<189.009 269.79> 623.317 81.0791<189.009 269.79>
VStem: 14.7715 83.3506<160.764 256.696> 31.2256 85.624<469.88 550.906> 341.98 80.373<469.88 550.892> 364.718 81.3906<160.764 256.683>
LayerCount: 2
Fore
SplineSet
226.784 704.396 m 128,-1,1
 307.752 704.396 307.752 704.396 365.053 646.92 c 128,-1,2
 422.353 589.457 422.353 589.457 422.354 510.965 c 128,-1,3
 422.354 432.481 422.354 432.481 371.55 376.41 c 1,4,5
 446.109 311.627 446.109 311.627 446.108 217.454 c 128,-1,6
 446.108 123.287 446.108 123.287 382.918 59.9102 c 128,-1,7
 319.723 -3.47656 319.723 -3.47656 230.44 -3.47656 c 128,-1,8
 141.152 -3.47656 141.152 -3.47656 77.9619 59.9102 c 128,-1,9
 14.7671 123.281 14.7671 123.281 14.7715 215.857 c 128,-1,10
 14.7715 308.422 14.7715 308.422 85.3018 372.833 c 1,11,12
 31.2212 429.648 31.2212 429.648 31.2256 509.553 c 128,-1,13
 31.2256 589.448 31.2256 589.448 88.5264 646.92 c 128,-1,0
 145.812 704.397 145.812 704.397 226.784 704.396 c 128,-1,1
229.399 623.317 m 128,-1,15
 182.795 623.317 182.795 623.317 149.83 590.221 c 128,-1,16
 116.85 557.132 116.85 557.132 116.85 510.379 c 128,-1,17
 116.85 463.649 116.85 463.649 149.819 429.718 c 128,-1,18
 182.8 395.793 182.8 395.793 229.399 395.793 c 128,-1,19
 276.003 395.793 276.003 395.793 309 429.718 c 128,-1,20
 341.979 463.644 341.979 463.644 341.98 510.379 c 128,-1,21
 341.98 557.125 341.98 557.125 308.989 590.221 c 128,-1,14
 276.008 623.312 276.008 623.312 229.399 623.317 c 128,-1,15
231.399 342.405 m 128,-1,23
 176.209 342.405 176.209 342.405 137.172 303.24 c 128,-1,24
 98.1279 264.07 98.1279 264.07 98.1221 208.73 c 128,-1,25
 98.1221 153.384 98.1221 153.384 137.172 114.209 c 128,-1,26
 176.21 75.0449 176.21 75.0449 231.399 75.0449 c 128,-1,27
 286.587 75.0449 286.587 75.0449 325.646 114.209 c 128,-1,28
 364.718 153.406 364.718 153.406 364.718 208.73 c 128,-1,29
 364.718 264.059 364.718 264.059 325.646 303.24 c 128,-1,22
 286.588 342.412 286.588 342.412 231.399 342.405 c 128,-1,23
EndSplineSet
EndChar

StartChar: nine
Encoding: 57 57 28
Width: 474
VWidth: 990
Flags: W
HStem: 0 21G<144.629 145.243 144.629 228.749> 304.365 81.666<137.263 277.838> 631.875 81.2021<148.289 320.235>
VStem: 29.502 80.4258<421.891 605.039> 357.896 79.0908<450.53 605.797>
LayerCount: 2
Fore
SplineSet
233.225 713.077 m 132,-1,1
 316.779 713.077 316.779 713.077 376.883 654.453 c 132,-1,2
 436.986 595.829 436.986 595.829 436.986 508.741 c 4,3,4
 436.986 466.379 436.986 466.379 428.402 447.153 c 6,5,-1
 228.749 0 l 5,6,-1
 144.629 0 l 5,7,-1
 287.614 314.275 l 5,8,9
 266.391 304.365 266.391 304.365 233.225 304.365 c 4,10,11
 149.662 304.365 149.662 304.365 89.5819 362.984 c 132,-1,12
 29.502 421.602 29.502 421.602 29.502 508.741 c 132,-1,13
 29.502 595.862 29.502 595.862 89.5958 654.47 c 132,-1,0
 149.69 713.077 149.69 713.077 233.225 713.077 c 132,-1,1
357.896 507.75 m 4,14,15
 357.896 562.79 357.896 562.79 321.602 597.332 c 132,-1,16
 285.308 631.875 285.308 631.875 233.891 631.875 c 4,17,18
 182.981 631.875 182.981 631.875 146.455 597.614 c 132,-1,19
 109.928 563.352 109.928 563.352 109.928 509.884 c 4,20,21
 109.928 457.936 109.928 457.936 144.669 421.983 c 132,-1,22
 179.411 386.031 179.411 386.031 234.183 386.031 c 4,23,24
 288.549 386.031 288.549 386.031 323.222 419.702 c 132,-1,25
 357.896 453.372 357.896 453.372 357.896 507.75 c 4,14,15
EndSplineSet
EndChar

StartChar: colon
Encoding: 58 58 29
Width: 161
Flags: W
VStem: 22 117<49.0525 101.105 384.858 432.457>
LayerCount: 2
Fore
SplineSet
22 409 m 0,0,1
 22 433.991 22 433.991 40.5 449.25 c 128,-1,2
 58.9889 464.5 58.9889 464.5 80.5 464.5 c 128,-1,3
 102.005 464.5 102.005 464.5 120.5 450.25 c 128,-1,4
 138.995 436 138.995 436 139 410 c 0,5,6
 139 383 139 383 120.5 367.5 c 128,-1,7
 101.999 352 101.999 352 80.5 352 c 128,-1,8
 58.995 352 58.995 352 40.5 367 c 128,-1,9
 22.005 382 22.005 382 22 409 c 0,0,1
21 75 m 0,10,11
 21 102 21 102 39 117.75 c 128,-1,12
 57 133.5 57 133.5 79 133.5 c 128,-1,13
 100.994 133.5 100.994 133.5 119 118.75 c 128,-1,14
 137 104.005 137 104.005 137 77 c 0,15,16
 137 48.005 137 48.005 119 31.5 c 128,-1,17
 101 15 101 15 79 15 c 128,-1,18
 57 15 57 15 39 31 c 128,-1,19
 21 47 21 47 21 75 c 0,10,11
EndSplineSet
EndChar

StartChar: semicolon
Encoding: 59 59 30
Width: 154
Flags: W
LayerCount: 2
Fore
SplineSet
17 414 m 128,-1,1
 17 439.995 17 439.995 35 455 c 128,-1,2
 53 470 53 470 75 470 c 128,-1,3
 97 470 97 470 115 456 c 128,-1,4
 133 442 133 442 133 416 c 0,5,6
 133 389 133 389 115 373.5 c 128,-1,7
 96.9942 358 96.9942 358 75 358 c 128,-1,8
 53 358 53 358 35 373 c 128,-1,0
 17 388 17 388 17 414 c 128,-1,1
22 92 m 0,9,10
 22 117 22 117 40 132.75 c 128,-1,11
 58 148.5 58 148.5 79.5 148.5 c 128,-1,12
 100.995 148.5 100.995 148.5 118.5 132.75 c 128,-1,13
 136.005 117 136.005 117 136 88 c 0,14,15
 136 68.9938 136 68.9938 127.5 50 c 128,-1,16
 119 31.0071 119 31.0071 111 20.5 c 128,-1,17
 102.996 9.98862 102.996 9.98862 84 -4 c 2,18,-1
 61.5 -20.5 l 2,19,20
 58.06 -22.9656 58.06 -22.9656 41 -32 c 1,21,22
 46 -27 46 -27 52 -16 c 128,-1,23
 57.9542 -5.08885 57.9542 -5.08885 63.5 7 c 128,-1,24
 69.005 19 69.005 19 72.5 29.5 c 128,-1,25
 75.9979 40.0086 75.9979 40.0086 74.5 46 c 128,-1,26
 73.0015 51.994 73.0015 51.994 66 50 c 0,27,28
 50.0037 45.9972 50.0037 45.9972 36 58.5 c 128,-1,29
 22 70.9995 22 70.9995 22 92 c 0,9,10
EndSplineSet
EndChar

StartChar: less
Encoding: 60 60 31
Width: 490
Flags: W
HStem: 136 460<446 451>
VStem: 6 445<374 596>
LayerCount: 2
Fore
SplineSet
451 596 m 1,0,-1
 451 516 l 1,1,-1
 158 371 l 1,2,-1
 446 216 l 1,3,-1
 446 136 l 1,4,-1
 6 374 l 1,5,-1
 451 596 l 1,0,-1
EndSplineSet
EndChar

StartChar: equal
Encoding: 61 61 32
Width: 665
Flags: W
HStem: 200 88<114 556> 438 88<112 552>
LayerCount: 2
Fore
SplineSet
114 288 m 1,0,-1
 556 288 l 1,1,-1
 556 200 l 1,2,-1
 112 200 l 1,3,-1
 114 288 l 1,0,-1
110 526 m 1,4,-1
 552 526 l 1,5,-1
 552 438 l 1,6,-1
 112 438 l 1,7,-1
 110 526 l 1,4,-1
EndSplineSet
EndChar

StartChar: greater
Encoding: 62 62 33
Width: 490
Flags: W
HStem: 136 460<42 47>
VStem: 42 445<374 596>
LayerCount: 2
Fore
SplineSet
42 596 m 1,0,-1
 487 374 l 1,1,-1
 47 136 l 1,2,-1
 47 216 l 1,3,-1
 335 371 l 1,4,-1
 42 516 l 1,5,-1
 42 596 l 1,0,-1
EndSplineSet
EndChar

StartChar: question
Encoding: 63 63 34
Width: 401
Flags: W
HStem: 0 21G<138.665 153.335> 672 77<112.027 244.471>
VStem: 103 88<220 307.205> 278 82<528.317 639.071>
LayerCount: 2
Fore
SplineSet
8 679 m 1,0,1
 70.22 749.005 70.22 749.005 176 749 c 0,2,3
 255.005 749 255.005 749 307.5 699.5 c 128,-1,4
 360 650 360 650 360 568 c 0,5,6
 360 525.995 360 525.995 342.53 492.03 c 128,-1,7
 325.07 458.07 325.07 458.07 283 414 c 2,8,-1
 241 370 l 2,9,10
 204.595 331.855 204.595 331.855 197.79 310.43 c 128,-1,11
 191 289.011 191 289.011 191 237 c 2,12,-1
 189 220 l 1,13,-1
 103 220 l 1,14,-1
 103 248 l 2,15,16
 103 306.005 103 306.005 118.17 336.79 c 128,-1,17
 133.335 367.57 133.335 367.57 173 410 c 2,18,-1
 216 457 l 2,19,20
 219.465 460.715 219.465 460.715 230.77 471.4 c 128,-1,21
 242.019 482.018 242.019 482.018 250 492.5 c 128,-1,22
 258.06 503.085 258.06 503.085 264.5 512.5 c 0,23,24
 278 532.225 278 532.225 278 558 c 0,25,26
 278 672 278 672 163 672 c 0,27,28
 104.185 672 104.185 672 76.5 639.5 c 0,29,30
 64.9916 625.996 64.9916 625.996 50 610 c 1,31,-1
 8 679 l 1,0,1
106 16 m 128,-1,33
 88 32.005 88 32.005 88 59.5 c 128,-1,34
 88 86.995 88 86.995 106 102.75 c 128,-1,35
 124 118.5 124 118.5 146 118.5 c 128,-1,36
 167.994 118.5 167.994 118.5 186 103.75 c 128,-1,37
 204 89.005 204 89.005 204 61 c 128,-1,38
 204 32.995 204 32.995 186 16.5 c 128,-1,39
 168 0 168 0 146 0 c 128,-1,32
 124 0 124 0 106 16 c 128,-1,33
EndSplineSet
EndChar

StartChar: at
Encoding: 64 64 35
Width: 905
Flags: W
HStem: 18 68<389.073 531.224> 197.5 66.5<418.39 482.601> 475.5 64<420.458 481.513> 638 72<406.929 525.315>
VStem: 98 77<306.784 449.671> 274 73<331.538 403.288> 535.5 63.5<315.003 407.032> 750 71<308.242 437.729>
LayerCount: 2
Fore
SplineSet
695 90 m 1,0,1
 665 70.995 665 70.995 647.5 61.5 c 128,-1,2
 629.952 51.9818 629.952 51.9818 598.5 40 c 128,-1,3
 566.978 27.9914 566.978 27.9914 528.5 23 c 128,-1,4
 489.956 18 489.956 18 438 18 c 0,5,6
 372.986 18 372.986 18 316 38.5 c 128,-1,7
 259 59.005 259 59.005 220 92.5 c 128,-1,8
 181 125.995 181 125.995 152.5 169 c 128,-1,9
 124.004 211.999 124.004 211.999 111 258 c 128,-1,10
 98 304 98 304 98 350 c 0,11,12
 98 489.005 98 489.005 182 590 c 0,13,14
 227 644 227 644 306 677 c 128,-1,15
 385 710 385 710 464 710 c 0,16,17
 537.005 710 537.005 710 605 689 c 128,-1,18
 672.995 668 672.995 668 715 632 c 0,19,20
 769 584 769 584 795 516 c 128,-1,21
 821 448 821 448 821 371 c 0,22,23
 821 314 821 314 808 280.5 c 128,-1,24
 794.995 247.005 794.995 247.005 754 210 c 0,25,26
 720 181 720 181 674 174 c 128,-1,27
 627.995 166.995 627.995 166.995 590 181.5 c 128,-1,28
 552.005 196.005 552.005 196.005 537 226 c 1,29,30
 501 197.5 501 197.5 455.5 197.5 c 128,-1,31
 410.005 197.5 410.005 197.5 370 211.75 c 128,-1,32
 330.008 225.995 330.008 225.995 302 266.5 c 128,-1,33
 273.995 307 273.995 307 274 363 c 0,34,35
 274 406.995 274 406.995 288.5 442.5 c 128,-1,36
 303.004 478.002 303.004 478.002 328 498.5 c 128,-1,37
 353.012 519.011 353.012 519.011 384 529.25 c 128,-1,38
 415.005 539.495 415.005 539.495 448.5 539.5 c 128,-1,39
 482.015 539.5 482.015 539.5 511 525 c 0,40,41
 529 516 529 516 536 504 c 1,42,-1
 536 535 l 1,43,-1
 609 535 l 1,44,-1
 609 467 l 2,45,46
 609 427.022 609 427.022 604 404.5 c 128,-1,47
 599 381.978 599 381.978 599 347.5 c 128,-1,48
 599 313 599 313 605 277 c 1,49,50
 614 250 614 250 651 244 c 128,-1,51
 688.005 238 688.005 238 712 262 c 0,52,53
 737.012 287.012 737.012 287.012 743.5 303 c 128,-1,54
 750 319.017 750 319.017 750 367 c 0,55,56
 750 494.995 750 494.995 670 571 c 0,57,58
 635.995 603.31 635.995 603.31 579.5 620.5 c 0,59,60
 522.021 638 522.021 638 465 638 c 0,61,62
 397.995 638 397.995 638 333 612 c 128,-1,63
 268 586 268 586 234 542 c 0,64,65
 175.005 465.005 175.005 465.005 175 350 c 0,66,67
 175 310.005 175 310.005 193 265.5 c 128,-1,68
 210.997 221.003 210.997 221.003 243.5 181 c 0,69,70
 279.5 136.69 279.5 136.69 327.5 113.5 c 0,71,72
 387.24 84.6346 387.24 84.6346 438 86 c 0,73,74
 475 87 475 87 505 87 c 128,-1,75
 535.014 87 535.014 87 554.5 94 c 0,76,77
 574.227 101.087 574.227 101.087 591 108 c 0,78,79
 608 115 608 115 620 123 c 2,80,-1
 646 140 l 1,81,-1
 695 90 l 1,0,1
347 366 m 0,82,83
 347 333 347 333 363.5 307.5 c 128,-1,84
 380.002 281.998 380.002 281.998 405 273 c 128,-1,85
 430.005 264 430.005 264 456 264 c 128,-1,86
 481.995 264 481.995 264 504 281 c 0,87,88
 531 301 531 301 534 327 c 0,89,90
 535.5 337.995 535.5 337.995 535.5 368.5 c 128,-1,91
 535.5 398.995 535.5 398.995 534 409 c 1,92,93
 525 439 525 439 503.5 457.25 c 128,-1,94
 482.011 475.5 482.011 475.5 456 475.5 c 128,-1,95
 430.005 475.5 430.005 475.5 405 465.25 c 128,-1,96
 380.002 455.008 380.002 455.008 363.5 428.5 c 128,-1,97
 347 401.995 347 401.995 347 366 c 0,82,83
EndSplineSet
EndChar

StartChar: A
Encoding: 65 65 36
Width: 674
Flags: W
HStem: 175 91<233 434>
LayerCount: 2
Fore
SplineSet
329 731 m 1,0,-1
 370 639 l 1,1,-1
 653 0 l 1,2,-1
 568.5 -37 l 1,3,-1
 472 175 l 1,4,-1
 197 175 l 1,5,-1
 103 -37 l 1,6,-1
 21 0 l 1,7,-1
 299 656 l 1,8,-1
 329 731 l 1,0,-1
434 266 m 1,9,-1
 330 514 l 1,10,-1
 233 266 l 1,11,-1
 434 266 l 1,9,-1
EndSplineSet
EndChar

StartChar: B
Encoding: 66 66 37
Width: 517
Flags: W
HStem: 0 80<131 317.8> 319 91<131 263.59> 618 70<131 228 228 244 247 262.067>
VStem: 44 87<80 319 410 619> 377 94.5<143.411 244.531>
LayerCount: 2
Fore
SplineSet
44 688 m 1,0,-1
 244 688 l 1,1,-1
 247 686 l 1,2,3
 292 686 292 686 328 669 c 128,-1,4
 364 652.005 364 652.005 384.5 624 c 128,-1,5
 404.994 596.011 404.994 596.011 413.5 560.5 c 128,-1,6
 422.005 524.997 422.005 524.997 416.5 492 c 0,7,8
 408.46 450.09 408.46 450.09 392.5 430 c 0,9,10
 369.435 400.993 369.435 400.993 339 386 c 1,11,12
 338 386 338 386 338 384.5 c 128,-1,13
 338 383 338 383 339 383 c 0,14,15
 379.005 383 379.005 383 412.5 352.5 c 128,-1,16
 445.995 322.005 445.995 322.005 458.75 279 c 128,-1,17
 471.5 235.995 471.5 235.995 471.5 186.5 c 128,-1,18
 471.5 137 471.5 137 448.25 95 c 128,-1,19
 425 53 425 53 379 26.5 c 128,-1,20
 332.995 -0.00500107 332.995 -0.00500107 271 0 c 2,21,-1
 261 0 l 1,22,-1
 93 0 l 1,23,-1
 44 0 l 1,24,-1
 44 688 l 1,0,-1
131 619 m 1,25,-1
 131 410 l 1,26,-1
 243 410 l 2,27,28
 273.885 410 273.885 410 302 437.5 c 0,29,30
 324.996 460.001 324.996 460.001 329 489.5 c 128,-1,31
 333.002 518.981 333.002 518.981 325 548 c 128,-1,32
 317.008 576.985 317.008 576.985 291 597.5 c 128,-1,33
 265.005 618.005 265.005 618.005 228 618 c 1,34,-1
 228 619 l 1,35,-1
 131 619 l 1,25,-1
131 319 m 1,36,-1
 131 80 l 1,37,-1
 284 80 l 2,38,39
 323 80 323 80 348 104.5 c 128,-1,40
 372.992 128.983 372.992 128.983 377 164 c 128,-1,41
 381.005 198.998 381.005 198.998 372.5 233.5 c 128,-1,42
 363.995 268 363.995 268 337 293 c 128,-1,43
 310 318 310 318 273 318 c 1,44,-1
 273 319 l 1,45,-1
 131 319 l 1,36,-1
EndSplineSet
EndChar

StartChar: C
Encoding: 67 67 38
Width: 620
Flags: W
HStem: -17.59 85.45<282.964 474.709> 628.75 85.09<282.145 463.65>
VStem: 8.34003 96.63<263.646 435.454>
LayerCount: 2
Fore
SplineSet
613.58 82.45 m 1,0,1
 510.605 -16.88 510.605 -16.88 367.49 -17.59 c 0,2,3
 269.95 -17.59 269.95 -17.59 187.15 31.7 c 128,-1,4
 104.395 80.975 104.395 80.975 56.32 165.75 c 128,-1,5
 8.29503 250.431 8.29503 250.431 8.34003 349.55 c 128,-1,6
 8.40003 448.67 8.40003 448.67 51.04 530.31 c 128,-1,7
 93.685 611.94 93.685 611.94 180.27 662.8 c 128,-1,8
 266.85 713.665 266.85 713.665 381.53 713.84 c 2,9,-1
 382.8 713.85 l 2,10,11
 504.075 714.03 504.075 714.03 604.22 627.04 c 1,12,-1
 543.67 564 l 1,13,14
 490 628.005 490 628.005 378.67 628.75 c 0,15,16
 265.405 628.75 265.405 628.75 185.21 546.57 c 128,-1,17
 104.975 464.34 104.975 464.34 104.97 348.13 c 128,-1,18
 104.97 231.91 104.97 231.91 185.1 149.8 c 128,-1,19
 265.185 67.72 265.185 67.72 375.35 67.86 c 0,20,21
 489.995 67.995 489.995 67.995 556 150 c 1,22,-1
 613.58 82.45 l 1,0,1
EndSplineSet
EndChar

StartChar: D
Encoding: 68 68 39
Width: 569
Flags: W
HStem: 0 83.66<83.8625 431.548> 610.34 77.66<82.2645 425.555>
VStem: 39 88.64<83.66 610.34> 451.36 92.64<123.352 576.311>
LayerCount: 2
Fore
SplineSet
39 691 m 1,0,1
 266.76 688.045 266.76 688.045 288 688 c 0,2,3
 547.5 687.505 547.5 687.505 544 358 c 0,4,5
 539.125 -0.00500488 539.125 -0.00500488 285 0 c 2,6,-1
 39 0 l 1,7,-1
 39 691 l 1,0,1
451.36 361.85 m 0,8,9
 448.09 609.305 448.09 609.305 279.11 610.34 c 0,10,11
 128.075 610.4 128.075 610.4 127.64 610.34 c 1,12,-1
 127.64 83.66 l 1,13,14
 168.035 81.89 168.035 81.89 279.11 83.66 c 0,15,16
 455 86.66 455 86.66 451.36 361.85 c 0,8,9
EndSplineSet
EndChar

StartChar: E
Encoding: 69 69 40
Width: 483
Flags: W
HStem: 0 82<146 429> 329 83<146 342> 608 85<146 420>
VStem: 54 92<82 329 412 608>
LayerCount: 2
Fore
SplineSet
54 693 m 1,0,-1
 420 693 l 1,1,-1
 420 608 l 1,2,-1
 146 608 l 1,3,-1
 146 412 l 1,4,-1
 342 412 l 1,5,-1
 342 329 l 1,6,-1
 146 329 l 1,7,-1
 146 82 l 1,8,-1
 429 82 l 1,9,-1
 429 0 l 1,10,-1
 54 0 l 1,11,-1
 54 693 l 1,0,-1
EndSplineSet
EndChar

StartChar: F
Encoding: 70 70 41
Width: 469
Flags: W
HStem: 0 21G<58 151> 329 83<151 346> 609 82<151 411>
VStem: 58 93<0 329 412 609>
LayerCount: 2
Fore
SplineSet
58 691 m 1,0,-1
 411 691 l 1,1,-1
 411 609 l 1,2,-1
 151 609 l 1,3,-1
 151 412 l 1,4,-1
 346 412 l 1,5,-1
 346 329 l 1,6,-1
 151 329 l 1,7,-1
 151 0 l 1,8,-1
 58 0 l 1,9,-1
 58 691 l 1,0,-1
EndSplineSet
EndChar

StartChar: G
Encoding: 71 71 42
Width: 704
Flags: W
HStem: -12.4601 88.9601<319.232 471.985> 274.5 88.72<445.5 580.48> 628 86.62<309.315 504.185>
VStem: 40.0001 89.5799<288.743 445.467> 580.51 92.46<135.05 274.5>
LayerCount: 2
Fore
SplineSet
669.52 363.22 m 1,0,-1
 672.97 363.23 l 1,1,-1
 672.97 115.77 l 1,2,3
 581.995 -10.0051 581.995 -10.0051 400.83 -12.4601 c 0,4,5
 242.97 -20.0051 242.97 -20.0051 144 81.9999 c 0,6,7
 40.0201 171.13 40.0201 171.13 40.0001 350 c 0,8,9
 39.9851 500.495 39.9851 500.495 162 612 c 0,10,11
 274.07 715.16 274.07 715.16 401.58 714.62 c 0,12,13
 546 714.005 546 714.005 633.55 633.25 c 1,14,-1
 572.22 571.49 l 1,15,-1
 571.33 570.68 l 1,16,-1
 570.7 571.71 l 1,17,-1
 572.22 571.49 l 1,18,19
 519.18 627.995 519.18 627.995 406.75 628 c 128,-1,20
 294.325 628 294.325 628 212.3 544.23 c 128,-1,21
 130.28 460.455 130.28 460.455 129.58 348.11 c 0,22,23
 138.28 215.675 138.28 215.675 212 138 c 0,24,25
 275.06 71.55 275.06 71.55 396 76.5 c 0,26,27
 483.675 80.085 483.675 80.085 508.26 94.04 c 2,28,-1
 580.51 135.05 l 1,29,-1
 580.48 274.5 l 1,30,-1
 445.5 274.5 l 1,31,-1
 444.5 276.5 l 1,32,-1
 444.5 363.48 l 1,33,-1
 447.99 363.5 l 1,34,-1
 669.52 363.22 l 1,0,-1
EndSplineSet
EndChar

StartChar: H
Encoding: 72 72 43
Width: 630
Flags: W
HStem: 0 21G<58 151 481 572> 311 83<151 481> 676 20G<481 572>
VStem: 58 93<0 311 394 690> 481 91<0 311 394 696>
LayerCount: 2
Fore
SplineSet
481 696 m 1,0,-1
 572 696 l 1,1,-1
 572 0 l 1,2,-1
 481 0 l 1,3,-1
 481 311 l 1,4,-1
 151 311 l 1,5,-1
 151 0 l 1,6,-1
 58 0 l 1,7,-1
 58 690 l 1,8,-1
 150 690 l 1,9,-1
 150 617 l 1,10,-1
 150 394 l 1,11,-1
 481 394 l 1,12,-1
 481 696 l 1,0,-1
EndSplineSet
EndChar

StartChar: I
Encoding: 73 73 44
Width: 207
Flags: W
HStem: 0 21G<59 148> 676 20G<58 148>
VStem: 58 90<0 696>
LayerCount: 2
Fore
SplineSet
105 696 m 1,0,-1
 148 696 l 1,1,-1
 148 0 l 1,2,-1
 58.0557 0 l 1,3,-1
 58.0557 696 l 1,4,-1
 105 696 l 1,0,-1
EndSplineSet
EndChar

StartChar: J
Encoding: 74 74 45
Width: 396
Flags: W
HStem: 680 20G<273 364>
VStem: 273 91<166.755 700>
LayerCount: 2
Fore
SplineSet
63 72 m 1,0,1
 99 44 99 44 138.5 44 c 128,-1,2
 177.991 44 177.991 44 209.5 62.5 c 128,-1,3
 241 80.995 241 80.995 257 125 c 128,-1,4
 273 169 273 169 273 228 c 2,5,-1
 273 700 l 1,6,-1
 364 700 l 1,7,-1
 364 222 l 2,8,9
 364 151.995 364 151.995 346.5 96.5 c 128,-1,10
 328.995 41 328.995 41 290.5 10.5 c 128,-1,11
 251.979 -20.0076 251.979 -20.0076 206 -33.5 c 128,-1,12
 159.995 -47 159.995 -47 111.5 -39.5 c 128,-1,13
 62.9806 -31.9962 62.9806 -31.9962 22 -7 c 1,14,-1
 63 72 l 1,0,1
EndSplineSet
EndChar

StartChar: K
Encoding: 75 75 46
Width: 636
Flags: W
HStem: 0 21G<49 142 472 587> 666 20G<49 142 414 527>
VStem: 49 93<0 358 361 686>
LayerCount: 2
Fore
SplineSet
414 686 m 1,0,-1
 527 686 l 1,1,-1
 249 362 l 1,2,-1
 587 0 l 1,3,-1
 472 0 l 1,4,-1
 142 358 l 1,5,-1
 142 0 l 1,6,-1
 49 0 l 1,7,-1
 49 686 l 1,8,-1
 142 686 l 1,9,-1
 142 361 l 1,10,-1
 414 686 l 1,0,-1
EndSplineSet
EndChar

StartChar: L
Encoding: 76 76 47
Width: 474
Flags: W
HStem: 0 85<142 425>
VStem: 49 93<85 690>
LayerCount: 2
Fore
SplineSet
142 690 m 1,0,-1
 142 85 l 1,1,-1
 425 85 l 1,2,-1
 425 0 l 1,3,-1
 49 0 l 1,4,-1
 49 691 l 1,5,-1
 142 690 l 1,0,-1
EndSplineSet
EndChar

StartChar: M
Encoding: 77 77 48
Width: 734
Flags: W
VStem: 64 98<0 136.875> 572 97<-1 108.75>
LayerCount: 2
Fore
SplineSet
369 337 m 1,0,-1
 654 726 l 1,1,-1
 669 -1 l 1,2,-1
 577 -5 l 1,3,-1
 565 457 l 1,4,-1
 369 190 l 1,5,-1
 166 460 l 1,6,-1
 157 -4 l 1,7,-1
 64 0 l 1,8,-1
 80 730 l 1,9,-1
 369 337 l 1,0,-1
EndSplineSet
EndChar

StartChar: N
Encoding: 78 78 49
Width: 646
Flags: W
HStem: 676 20G<500 588>
VStem: 58 87<3 467> 500 88<204 696>
LayerCount: 2
Fore
SplineSet
145 467 m 1,0,-1
 145 3 l 1,1,-1
 58 3 l 1,2,-1
 58 700 l 1,3,-1
 500 204 l 1,4,-1
 500 696 l 1,5,-1
 588 696 l 1,6,-1
 588 -28 l 1,7,-1
 145 467 l 1,0,-1
EndSplineSet
EndChar

StartChar: O
Encoding: 79 79 50
Width: 752
Flags: W
HStem: -10.5 89<318.562 422.633> 619.5 85<303.459 415.905>
VStem: 22.5 98<295.901 408.131> 628 102<296.976 403.903>
LayerCount: 2
Fore
SplineSet
475.04 597.19 m 128,-1,1
 421.493 619.5 421.493 619.5 359.05 619.5 c 128,-1,2
 296.59 619.5 296.59 619.5 250.63 596.27 c 128,-1,3
 204.67 573.035 204.67 573.035 177.02 535.03 c 128,-1,4
 149.275 496.892 149.275 496.892 134.9 448.29 c 128,-1,5
 120.5 399.645 120.5 399.645 120.5 349 c 128,-1,6
 120.5 298.439 120.5 298.439 137.86 249.33 c 128,-1,7
 155.209 200.238 155.209 200.238 184.96 162.55 c 128,-1,8
 214.6 125.005 214.6 125.005 262.59 101.75 c 128,-1,9
 310.575 78.5 310.575 78.5 370.51 78.5 c 128,-1,10
 430.449 78.5 430.449 78.5 480.95 101.77 c 128,-1,11
 531.446 125.045 531.446 125.045 562.57 163.08 c 128,-1,12
 593.785 201.24 593.785 201.24 610.89 250.32 c 128,-1,13
 628 299.416 628 299.416 628 350.5 c 128,-1,14
 628 401.551 628 401.551 610.4 450.15 c 128,-1,15
 592.816 498.706 592.816 498.706 560.59 536.89 c 128,-1,0
 528.475 574.93 528.475 574.93 475.04 597.19 c 128,-1,1
522.49 673.29 m 128,-1,17
 594.499 642.078 594.499 642.078 638.88 591.65 c 128,-1,18
 683.188 541.298 683.188 541.298 706.6 476.85 c 128,-1,19
 730 412.44 730 412.44 730 345.5 c 128,-1,20
 730 278.55 730 278.55 706.09 214.62 c 128,-1,21
 682.18 150.69 682.18 150.69 638.38 100.85 c 128,-1,22
 594.505 50.93 594.505 50.93 524 20.21 c 128,-1,23
 453.515 -10.495 453.515 -10.495 368.99 -10.5 c 128,-1,24
 284.465 -10.5 284.465 -10.5 216.96 20.22 c 128,-1,25
 149.424 50.9796 149.424 50.9796 108.07 101.42 c 128,-1,26
 66.7751 151.76 66.7751 151.76 44.6401 215.68 c 128,-1,27
 22.5 279.58 22.5 279.58 22.5 347 c 128,-1,28
 22.5 414.415 22.5 414.415 44.1301 478.3 c 128,-1,29
 65.7751 542.23 65.7751 542.23 106.56 592.57 c 128,-1,30
 147.404 643.01 147.404 643.01 213.44 673.77 c 128,-1,31
 279.455 704.505 279.455 704.505 364.98 704.5 c 128,-1,16
 450.525 704.5 450.525 704.5 522.49 673.29 c 128,-1,17
EndSplineSet
EndChar

StartChar: P
Encoding: 80 80 51
Width: 451
Flags: W
HStem: 1 21G<63 144> 304 83.75<144 288.063> 618.25 73.75<143.92 294.992>
VStem: 63 81<1 304 387.75 618.25> 362.58 77.92<465.806 542.801>
LayerCount: 2
Fore
SplineSet
63 692 m 1,0,-1
 246 692 l 2,1,2
 307.995 692 307.995 692 354 664 c 128,-1,3
 400.005 635.995 400.005 635.995 420.25 593 c 128,-1,4
 440.5 549.995 440.5 549.995 440.5 499 c 128,-1,5
 440.5 448 440.5 448 418.75 404.5 c 128,-1,6
 397 361 397 361 349.5 332.5 c 128,-1,7
 301.995 304 301.995 304 236 304 c 2,8,-1
 144 304 l 1,9,-1
 144 1 l 1,10,-1
 63 1 l 1,11,-1
 63 692 l 1,0,-1
143.92 618.25 m 1,12,-1
 143.92 387.75 l 1,13,-1
 255.05 387.75 l 2,14,15
 287.98 387.75 287.98 387.75 312.67 404.73 c 128,-1,16
 337.364 421.702 337.364 421.702 349.98 446.92 c 128,-1,17
 362.58 472.135 362.58 472.135 362.58 501.97 c 128,-1,18
 362.58 531.829 362.58 531.829 353.06 557.54 c 128,-1,19
 343.559 583.242 343.559 583.242 319.36 600.76 c 128,-1,20
 295.18 618.25 295.18 618.25 261.23 618.25 c 2,21,-1
 143.92 618.25 l 1,12,-1
EndSplineSet
EndChar

StartChar: Q
Encoding: 81 81 52
Width: 763
Flags: W
HStem: -10.26 87.82<288.744 439.978> 615.67 87.78<287.826 456.007>
VStem: 13.65 88.11<262.808 430.339> 642.02 88.16<269.256 430.339>
LayerCount: 2
Fore
SplineSet
551.51 655.58 m 128,-1,1
 634.07 607.7 634.07 607.7 682.12 525.47 c 128,-1,2
 730.18 443.225 730.18 443.225 730.18 346.58 c 0,3,4
 730.18 219.11 730.18 219.11 648.67 120.49 c 1,5,-1
 714.46 47.75 l 1,6,-1
 635.26 -17.49 l 1,7,-1
 574.2 52.38 l 1,8,9
 482.835 -10.26 482.835 -10.26 378.86 -10.26 c 128,-1,10
 274.88 -10.26 274.88 -10.26 192.32 37.6 c 128,-1,11
 109.76 85.465 109.76 85.465 61.7 167.7 c 128,-1,12
 13.65 249.939 13.65 249.939 13.65 346.58 c 128,-1,13
 13.65 443.225 13.65 443.225 61.7 525.47 c 128,-1,14
 109.76 607.7 109.76 607.7 192.32 655.58 c 128,-1,15
 274.889 703.45 274.889 703.45 371.91 703.45 c 128,-1,0
 468.926 703.45 468.926 703.45 551.51 655.58 c 128,-1,1
371.91 615.67 m 128,-1,17
 259.74 615.67 259.74 615.67 180.75 536.99 c 128,-1,18
 101.76 458.3 101.76 458.3 101.76 346.58 c 128,-1,19
 101.76 234.86 101.76 234.86 180.74 156.21 c 128,-1,20
 259.73 77.565 259.73 77.565 371.91 77.56 c 0,21,22
 450.45 77.56 450.45 77.56 516.12 118.86 c 1,23,-1
 443.19 201.32 l 1,24,-1
 520.38 263.46 l 1,25,-1
 589.11 186.37 l 1,26,27
 642.03 257.365 642.03 257.365 642.02 346.58 c 0,28,29
 642.02 458.3 642.02 458.3 563.06 536.99 c 128,-1,16
 484.085 615.665 484.085 615.665 371.91 615.67 c 128,-1,17
EndSplineSet
EndChar

StartChar: R
Encoding: 82 82 53
Width: 489
Flags: W
HStem: 0 21G<52 141 423 524> 313 81<141 279.352> 618 83<141 287.817>
VStem: 49 92<394 618> 52 89<0 313>
LayerCount: 2
Fore
SplineSet
49 701 m 1,0,-1
 256 701 l 2,1,2
 308.005 701 308.005 701 349 681.5 c 128,-1,3
 390.015 661.99 390.015 661.99 413 629.5 c 128,-1,4
 436.01 596.974 436.01 596.974 445.5 556 c 128,-1,5
 454.996 515.001 454.996 515.001 448.5 475.5 c 128,-1,6
 442.006 436.013 442.006 436.013 419 399.5 c 128,-1,7
 396.005 363.005 396.005 363.005 360 341 c 1,8,-1
 524 0 l 1,9,-1
 423 0 l 1,10,-1
 272 314 l 1,11,12
 261 313 261 313 246 313 c 2,13,-1
 141 313 l 1,14,-1
 141 0 l 1,15,-1
 52 0 l 1,16,-1
 49 701 l 1,0,-1
141 618 m 1,17,-1
 141 394 l 1,18,-1
 250 394 l 2,19,20
 281 394 281 394 305 410.5 c 128,-1,21
 329.004 427.003 329.004 427.003 341.5 451.5 c 128,-1,22
 354 476.005 354 476.005 354 505 c 128,-1,23
 354 533.982 354 533.982 344.5 559 c 128,-1,24
 335.005 584.005 335.005 584.005 311.5 601 c 128,-1,25
 287.988 618 287.988 618 255 618 c 2,26,-1
 141 618 l 1,17,-1
EndSplineSet
EndChar

StartChar: S
Encoding: 83 83 54
Width: 528
Flags: W
HStem: 626 79<216.8 317.329>
VStem: 65.5608 94.4392<530.349 585.849>
LayerCount: 2
Fore
SplineSet
255 705 m 0,0,1
 315 705 315 705 351.5 696 c 128,-1,2
 388.012 686.996 388.012 686.996 424 659 c 1,3,-1
 378 592 l 1,4,5
 328.005 626.005 328.005 626.005 248 626 c 0,6,7
 212 626 212 626 188 600 c 128,-1,8
 164 574 164 574 160 544 c 128,-1,9
 155.997 514.016 155.997 514.016 180.5 481.5 c 128,-1,10
 204.981 449.014 204.981 449.014 258 430 c 2,11,-1
 339 402 l 2,12,13
 366.982 392.003 366.982 392.003 393.5 375 c 128,-1,14
 420.005 358.005 420.005 358.005 443 331.5 c 128,-1,15
 466.003 304.986 466.003 304.986 479 274 c 128,-1,16
 492 243 492 243 492 202.5 c 128,-1,17
 492 162 492 162 472 120 c 0,18,19
 401.17 -28.755 401.17 -28.755 184 1.71661e-05 c 0,20,21
 145.916 7.02135 145.916 7.02135 119 15.5 c 128,-1,22
 92 24.005 92 24.005 81 29 c 128,-1,23
 70.005 33.995 70.005 33.995 36 52 c 1,24,-1
 54 149 l 1,25,26
 136.005 111.005 136.005 111.005 191 97 c 0,27,28
 224 88 224 88 257.5 88 c 128,-1,29
 291.005 88 291.005 88 324.5 104.5 c 128,-1,30
 357.995 121 357.995 121 379 152 c 0,31,32
 409.002 200.002 409.002 200.002 387 247.5 c 128,-1,33
 364.995 295.005 364.995 295.005 312 312 c 0,34,35
 261 334 261 334 232 344 c 0,36,37
 170.005 362 170.005 362 129.5 397 c 128,-1,38
 89.0127 431.984 89.0127 431.984 74.5 471.5 c 128,-1,39
 59.9945 510.996 59.9945 510.996 65.5 553 c 128,-1,40
 71.0058 595.006 71.0058 595.006 94 628.5 c 128,-1,41
 117 662.003 117 662.003 159.5 683.5 c 128,-1,42
 202.005 705 202.005 705 255 705 c 0,0,1
EndSplineSet
EndChar

StartChar: T
Encoding: 84 84 55
Width: 490
Flags: W
HStem: 0 21G<198 203 198 288> 609 77<16 203 288 474>
VStem: 203 85<0 609>
LayerCount: 2
Fore
SplineSet
16 686 m 1,0,-1
 474 686 l 1,1,-1
 474 609 l 1,2,-1
 288 609 l 1,3,-1
 288 0 l 1,4,-1
 198 0 l 1,5,-1
 203 0 l 1,6,-1
 203 609 l 1,7,-1
 16 609 l 1,8,-1
 16 686 l 1,0,-1
EndSplineSet
EndChar

StartChar: U
Encoding: 85 85 56
Width: 592
Flags: W
HStem: 0 88<258.078 327.825>
VStem: 52 93<216.811 683> 444 91<218.806 682>
LayerCount: 2
Fore
SplineSet
145 685 m 1,0,-1
 145 266 l 2,1,2
 145 223.995 145 223.995 158.5 189 c 128,-1,3
 172.01 153.979 172.01 153.979 192.5 132.5 c 128,-1,4
 213.012 110.998 213.012 110.998 239.5 99.5 c 128,-1,5
 266.005 87.995 266.005 87.995 293.5 88 c 128,-1,6
 320.995 88 320.995 88 347.5 100 c 128,-1,7
 373.987 111.992 373.987 111.992 395 133.5 c 128,-1,8
 416 154.995 416 154.995 429.5 190.5 c 128,-1,9
 443 226.005 443 226.005 443 270 c 1,10,-1
 444 268 l 1,11,-1
 444 682 l 1,12,-1
 535 682 l 1,13,-1
 535 265 l 2,14,15
 535 200.009 535 200.009 516.5 148.5 c 128,-1,16
 498.005 97.005 498.005 97.005 463.5 65.5 c 128,-1,17
 428.987 33.9881 428.987 33.9881 384.5 17 c 128,-1,18
 339.982 9.53303e-07 339.982 9.53303e-07 293.5 0 c 128,-1,19
 247 0 247 0 203 19 c 128,-1,20
 159.005 38.005 159.005 38.005 125 69.5 c 128,-1,21
 90.995 101 90.995 101 71.5 152 c 128,-1,22
 52 203 52 203 52 264 c 2,23,-1
 52 683 l 1,24,-1
 145 685 l 1,0,-1
EndSplineSet
EndChar

StartChar: V
Encoding: 86 86 57
Width: 651
Flags: W
LayerCount: 2
Fore
SplineSet
571 729 m 1,0,-1
 642 693 l 1,1,-1
 319 -37 l 1,2,-1
 11 693 l 1,3,-1
 87 728 l 1,4,-1
 320 181 l 1,5,-1
 571 729 l 1,0,-1
EndSplineSet
EndChar

StartChar: W
Encoding: 87 87 58
Width: 820
Flags: W
LayerCount: 2
Fore
SplineSet
411 370 m 1,0,-1
 244 -21 l 1,1,-1
 1 692 l 1,2,-1
 88 717 l 1,3,-1
 248 227 l 1,4,-1
 392 559 l 1,5,-1
 424 559 l 1,6,-1
 567 228 l 1,7,-1
 735 718 l 1,8,-1
 812 692 l 1,9,-1
 570 -19 l 1,10,-1
 411 370 l 1,0,-1
EndSplineSet
EndChar

StartChar: X
Encoding: 88 88 59
Width: 694
Flags: W
LayerCount: 2
Fore
SplineSet
602 680 m 1,0,-1
 404 395 l 1,1,-1
 666 19 l 1,2,-1
 666 18 l 1,3,-1
 666 19 l 1,4,-1
 595 -38.5 l 1,5,-1
 347 310 l 1,6,-1
 109 -28 l 1,7,-1
 29 19 l 1,8,-1
 292 390 l 1,9,-1
 75 680 l 1,10,-1
 165 739 l 1,11,-1
 349 476 l 1,12,-1
 535 734 l 1,13,-1
 602 680 l 1,0,-1
EndSplineSet
EndChar

StartChar: Y
Encoding: 89 89 60
Width: 604
Flags: W
VStem: 255 99<3 330>
LayerCount: 2
Fore
SplineSet
16 692 m 1,0,-1
 92 736 l 1,1,-1
 304 418 l 1,2,-1
 516 736 l 1,3,-1
 588 692 l 1,4,-1
 354 334 l 1,5,-1
 354 3 l 1,6,-1
 255 3 l 1,7,-1
 255 330 l 1,8,-1
 256 330 l 1,9,-1
 16 692 l 1,0,-1
EndSplineSet
EndChar

StartChar: Z
Encoding: 90 90 61
Width: 597
Flags: W
HStem: 0 88<210 594> 602 80<131 446>
LayerCount: 2
Fore
SplineSet
131 682 m 1,0,-1
 601 682 l 1,1,-1
 210 88 l 1,2,-1
 594 88 l 1,3,-1
 594 0 l 1,4,-1
 39 0 l 1,5,-1
 446 602 l 1,6,-1
 105 602 l 1,7,-1
 131 682 l 1,0,-1
EndSplineSet
EndChar

StartChar: bracketleft
Encoding: 91 91 62
Width: 327
Flags: W
HStem: 0 80<142 286> 622 80<142 284>
VStem: 62 80<80 622> 62 224<0 80 622 702>
LayerCount: 2
Fore
SplineSet
62 0 m 1,0,-1
 62 702 l 1,1,-1
 284 702 l 1,2,-1
 284 622 l 1,3,-1
 142 622 l 1,4,-1
 142 80 l 1,5,-1
 286 80 l 1,6,-1
 286 0 l 1,7,-1
 62 0 l 1,0,-1
EndSplineSet
EndChar

StartChar: backslash
Encoding: 92 92 63
Width: 382
Flags: W
HStem: 0 21G<286 366> 682 20G<19 99>
VStem: 19 347<0 702>
LayerCount: 2
Fore
SplineSet
286 0 m 1,0,-1
 19 702 l 1,1,-1
 99 702 l 1,2,-1
 366 0 l 1,3,-1
 286 0 l 1,0,-1
EndSplineSet
EndChar

StartChar: bracketright
Encoding: 93 93 64
Width: 327
Flags: W
HStem: 0 80<62 206> 622 80<64 206>
VStem: 62 224<0 80 622 702> 206 80<80 622>
LayerCount: 2
Fore
SplineSet
286 0 m 1,0,-1
 62 0 l 1,1,-1
 62 80 l 1,2,-1
 206 80 l 1,3,-1
 206 622 l 1,4,-1
 64 622 l 1,5,-1
 64 702 l 1,6,-1
 286 702 l 1,7,-1
 286 0 l 1,0,-1
EndSplineSet
EndChar

StartChar: asciicircum
Encoding: 94 94 65
Width: 605
Flags: W
HStem: 530 204<309 448>
VStem: 157 291<530 530>
LayerCount: 2
Fore
SplineSet
448 530 m 1,0,-1
 373 530 l 1,1,-1
 308 621 l 1,2,-1
 237 530 l 1,3,-1
 157 530 l 1,4,-1
 309 734 l 1,5,-1
 448 530 l 1,0,-1
EndSplineSet
EndChar

StartChar: underscore
Encoding: 95 95 66
Width: 559
Flags: W
HStem: -82 82<48 511>
LayerCount: 2
Fore
SplineSet
511 0 m 1,0,-1
 511 -82 l 1,1,-1
 48 -82 l 1,2,-1
 48 0 l 1,3,-1
 511 0 l 1,0,-1
EndSplineSet
EndChar

StartChar: grave
Encoding: 193 96 67
Width: 1000
Flags: W
HStem: 791 194<461 551>
VStem: 399 202<838 912>
LayerCount: 2
Fore
SplineSet
461 985 m 1,0,-1
 601 838 l 1,1,-1
 551 791 l 1,2,-1
 399 912 l 1,3,-1
 461 985 l 1,0,-1
EndSplineSet
EndChar

StartChar: a
Encoding: 97 97 68
Width: 393
Flags: W
HStem: -10.0098 74.7842<85.8883 256.208> 202.715 74.785<136.623 273.741>
VStem: 22 76.7607<45.5418 164.02>
LayerCount: 2
Fore
SplineSet
370.98 0 m 1,0,-1
 283.5 0 l 1,1,-1
 283.5 41.4404 l 1,2,3
 241.057 -10.0098 241.057 -10.0098 190.55 -10.0098 c 0,4,5
 110.041 -10.0098 110.041 -10.0098 66.0205 23.6831 c 128,-1,6
 22 57.3759 22 57.3759 22 127 c 0,7,8
 22 152.537 22 152.537 31.0509 177.276 c 128,-1,9
 40.1018 202.015 40.1018 202.015 59.3261 225.39 c 128,-1,10
 78.5504 248.765 78.5504 248.765 114.842 263.133 c 128,-1,11
 151.133 277.5 151.133 277.5 199.5 277.5 c 0,12,13
 256.608 277.5 256.608 277.5 288 222 c 5,14,15
 288 301 288 301 271 321 c 0,16,17
 225 376 225 376 120 323 c 1,18,-1
 89 389 l 1,19,20
 128.556 414.952 128.556 414.952 179.126 424.612 c 128,-1,21
 229.696 434.272 229.696 434.272 279.706 416.533 c 128,-1,22
 329.716 398.793 329.716 398.793 352 349.5 c 0,23,24
 370.98 307.53 370.98 307.53 370.98 267.9 c 2,25,-1
 370.98 0 l 1,0,-1
289.55 131.914 m 1,26,27
 281.02 202.715 281.02 202.715 190.567 202.715 c 0,28,29
 145.412 202.715 145.412 202.715 122.086 183.328 c 128,-1,30
 98.7607 163.94 98.7607 163.94 98.7607 128.883 c 0,31,32
 98.7607 64.7744 98.7607 64.7744 190.719 64.7744 c 0,33,34
 280.204 64.7744 280.204 64.7744 289.55 131.914 c 1,26,27
EndSplineSet
EndChar

StartChar: b
Encoding: 98 98 69
Width: 520
Flags: W
HStem: -25.9051 85.8206<189.079 347.294> 352.597 82.1657<166.715 348.144> 765.527 21.4364G<27.7043 127.384>
VStem: 27.7043 99.4327<-14.7582 24.2454 378.568 786.963> 363.57 97.1498<79.4237 333.086>
LayerCount: 2
Fore
SplineSet
253.523 425.891 m 4,0,1
 460.208 425.891 460.208 425.891 460.203 204.5 c 128,-1,2
 460.203 -16.8955 460.203 -16.8955 253.523 -16.8906 c 0,3,4
 193.324 -16.8906 193.324 -16.8906 136.77 36.39 c 1,5,-1
 136.77 0 l 1,6,-1
 50 0 l 1,7,-1
 50 748 l 1,8,-1
 137 748 l 1,9,-1
 137 366.97 l 1,10,11
 169.037 425.891 169.037 425.891 253.523 425.891 c 4,0,1
248.472 61.3477 m 0,12,13
 369.37 61.3477 369.37 61.3477 369.364 206.244 c 128,-1,14
 369.364 351.131 369.364 351.131 254.817 351.131 c 0,15,16
 130.497 351.131 130.497 351.131 130.508 205.874 c 0,17,18
 130.508 61.3525 130.508 61.3525 248.472 61.3477 c 0,12,13
EndSplineSet
EndChar

StartChar: c
Encoding: 99 99 70
Width: 370
Flags: W
HStem: -10.25 84.7617<171.238 305.471> 354.599 82.7614<140.906 281.916>
VStem: 14.22 82.3435<69.2633 328.736>
LayerCount: 2
Fore
SplineSet
14.22 208.88 m 0,0,1
 14.22 308.267 14.22 308.267 70.314 372.814 c 128,-1,2
 126.408 437.36 126.408 437.36 217.06 437.36 c 0,3,4
 317.474 437.36 317.474 437.36 367.26 387.93 c 1,5,-1
 321.017 321.922 l 1,6,7
 304.396 340.748 304.396 340.748 280.135 347.673 c 128,-1,8
 255.874 354.599 255.874 354.599 215.23 354.599 c 0,9,10
 169.007 354.599 169.007 354.599 132.785 313.76 c 128,-1,11
 96.5635 272.921 96.5635 272.921 96.5635 205.723 c 0,12,13
 96.5635 168.923 96.5635 168.923 109.961 141.365 c 128,-1,14
 123.359 113.806 123.359 113.806 143.611 100.327 c 128,-1,15
 163.864 86.8472 163.864 86.8472 182.062 80.6795 c 128,-1,16
 200.26 74.5117 200.26 74.5117 215.304 74.5117 c 0,17,18
 263.197 74.5117 263.197 74.5117 283.35 80.0478 c 128,-1,19
 303.503 85.5839 303.503 85.5839 320.279 98.8154 c 1,20,-1
 364.32 32.91 l 1,21,22
 352.133 21.88 352.133 21.88 348.851 19.0728 c 128,-1,23
 345.568 16.2657 345.568 16.2657 332.419 8.27725 c 128,-1,24
 319.269 0.288836 319.269 0.288836 307.152 -2.19574 c 128,-1,25
 295.034 -4.68032 295.034 -4.68032 272.463 -7.46516 c 128,-1,26
 249.892 -10.25 249.892 -10.25 220.48 -10.25 c 0,27,28
 183.168 -10.25 183.168 -10.25 146.998 4.23166 c 128,-1,29
 110.828 18.7133 110.828 18.7133 80.9169 45.3405 c 128,-1,30
 51.0063 71.9676 51.0063 71.9676 32.6131 114.666 c 128,-1,31
 14.22 157.365 14.22 157.365 14.22 208.88 c 0,0,1
EndSplineSet
EndChar

StartChar: d
Encoding: 100 100 71
Width: 485
Flags: W
HStem: 0 67.6738<349.499 387.302> 342.482 78.2876<90.0326 358.092> 728 20G<347 434>
VStem: 41.8906 83.1846<25.4025 382.654> 347 87<0 38.7754 376.025 748>
LayerCount: 2
Fore
SplineSet
239.312 -9.76953 m 0,0,1
 41.8906 -9.76953 41.8906 -9.76953 41.8906 205.5 c 128,-1,2
 41.8906 420.77 41.8906 420.77 244.385 420.77 c 0,3,4
 331.852 420.77 331.852 420.77 347 376.025 c 1,5,-1
 347 748 l 1,6,-1
 434 748 l 1,7,-1
 434 0 l 1,8,-1
 349.499 0 l 1,9,-1
 349.499 38.7754 l 1,10,11
 324.281 -9.76953 324.281 -9.76953 239.312 -9.76953 c 0,0,1
241.884 342.482 m 0,12,13
 125.075 342.482 125.075 342.482 125.075 208.578 c 0,14,15
 125.075 67.6738 125.075 67.6738 242.796 67.6738 c 0,16,17
 353.954 67.6738 353.954 67.6738 353.954 209.74 c 0,18,19
 353.954 342.482 353.954 342.482 241.884 342.482 c 0,12,13
EndSplineSet
EndChar

StartChar: e
Encoding: 101 101 72
Width: 409
Flags: W
HStem: -10.38 80.5402<176.611 273.57> 164.78 80.18<97.5996 327.72> 341.9 77.55<140.992 286.329>
VStem: 13.61 382.34<164.78 312.653 164.78 201.96>
LayerCount: 2
Fore
SplineSet
95.8096 164.78 m 1,0,1
 103.152 133.625 103.152 133.625 119.12 112.762 c 128,-1,2
 135.089 91.8983 135.089 91.8983 155.355 83.6206 c 128,-1,3
 175.622 75.3428 175.622 75.3428 189.92 72.6911 c 128,-1,4
 204.217 70.0395 204.217 70.0395 219.1 70.1602 c 0,5,6
 270.798 70.5795 270.798 70.5795 313.99 112.83 c 1,7,-1
 368.46 59.05 l 1,8,9
 315.63 -10.385 315.63 -10.385 213.95 -10.38 c 0,10,11
 131 -10.38 131 -10.38 86.86 32.69 c 0,12,13
 49.5876 69.0506 49.5876 69.0506 31.5988 106.432 c 128,-1,14
 13.61 143.813 13.61 143.813 13.61 201.96 c 0,15,16
 13.61 293.957 13.61 293.957 69.5671 356.703 c 128,-1,17
 125.524 419.45 125.524 419.45 217.26 419.45 c 0,18,19
 296.955 419.45 296.955 419.45 358.31 349.11 c 0,20,21
 412.31 288.72 412.31 288.72 395.95 164.78 c 1,22,-1
 95.8096 164.78 l 1,0,1
327.72 244.96 m 1,23,24
 319.192 292.674 319.192 292.674 290.285 317.287 c 128,-1,25
 261.378 341.9 261.378 341.9 216.86 341.9 c 128,-1,26
 172.468 341.9 172.468 341.9 141.629 317.345 c 128,-1,27
 110.79 292.79 110.79 292.79 97.5996 244.96 c 1,28,-1
 327.72 244.96 l 1,23,24
EndSplineSet
EndChar

StartChar: f
Encoding: 102 102 73
Width: 333
Flags: W
HStem: 0 21G<97 177> 323 80<47 97 179 245> 556 86<197.1 253>
VStem: 97 80<0 323> 101 78<403 521.3>
LayerCount: 2
Fore
SplineSet
101 403 m 1,0,1
 101 533 101 533 145 587.5 c 128,-1,2
 189 642 189 642 241 642 c 128,-1,3
 293 642 293 642 318 622 c 1,4,-1
 270 547 l 1,5,-1
 253 556 l 1,6,7
 210 556 210 556 194.5 525 c 128,-1,8
 179 494 179 494 179 403 c 1,9,-1
 245 403 l 1,10,-1
 245 323 l 1,11,-1
 177 323 l 1,12,-1
 177 0 l 1,13,-1
 97 0 l 1,14,-1
 97 325 l 1,15,-1
 47 325 l 1,16,-1
 47 403 l 1,17,-1
 101 403 l 1,0,1
EndSplineSet
EndChar

StartChar: g
Encoding: 103 103 74
Width: 436
Flags: W
HStem: -201 79<151.4 306.908> 11 79.4014<80.439 313.303> 337.519 82.481<78.69 281.824>
VStem: 29.405 81.625<52.7032 373.956> 314.97 88.03<-106.46 55 56.4115 377.664>
LayerCount: 2
Fore
SplineSet
111.03 216.062 m 0,0,1
 111.03 90.4014 111.03 90.4014 213 90.4014 c 128,-1,2
 314.97 90.4014 314.97 90.4014 314.97 203.701 c 0,3,4
 314.97 337.519 314.97 337.519 218.83 337.519 c 0,5,6
 111.03 337.519 111.03 337.519 111.03 216.062 c 0,0,1
403 0 m 2,7,8
 403 -106.46 403 -106.46 330 -164 c 0,9,10
 283.059 -201 283.059 -201 203.56 -201 c 0,11,12
 132.064 -201 132.064 -201 84 -173 c 2,13,-1
 31 -141 l 1,14,-1
 67 -73 l 1,15,16
 164 -122 164 -122 206 -122 c 0,17,18
 312 -122 312 -122 312 -34 c 1,19,-1
 312 55 l 1,20,21
 289.695 11 289.695 11 211 11 c 0,22,23
 29.405 11 29.405 11 29.405 215.5 c 128,-1,24
 29.405 420 29.405 420 220.5 420 c 0,25,26
 267.672 420 267.672 420 309 359 c 1,27,-1
 309 403 l 5,28,-1
 403 403 l 1,29,-1
 403 0 l 2,7,8
EndSplineSet
EndChar

StartChar: h
Encoding: 104 104 75
Width: 439
Flags: W
HStem: 0 21G<41 121 323 402> 339 86<192.346 258.708> 728 20G<41 123>
VStem: 41 80<0 262.655 368 748> 323 79<0 290.622>
LayerCount: 2
Fore
SplineSet
323 0 m 1,0,1
 324 85 324 85 324 228 c 0,2,3
 324 266.42 324 266.42 309.21 293.12 c 128,-1,4
 294.427 319.807 294.427 319.807 271.71 329.41 c 128,-1,5
 248.988 339 248.988 339 222.5 339 c 128,-1,6
 195.992 339 195.992 339 173.5 324.5 c 128,-1,7
 150.99 309.989 150.99 309.989 136 285 c 128,-1,8
 121 259.995 121 259.995 121 228 c 2,9,-1
 121 0 l 1,10,-1
 41 0 l 1,11,-1
 41 748 l 1,12,-1
 123 748 l 1,13,-1
 123 368 l 1,14,15
 169.14 422.825 169.14 422.825 242.58 425 c 0,16,17
 325.77 427.94 325.77 427.94 368.5 368 c 0,18,19
 401.995 321.395 401.995 321.395 402 258 c 2,20,-1
 402 0 l 1,21,-1
 323 0 l 1,0,1
EndSplineSet
EndChar

StartChar: i
Encoding: 105 105 76
Width: 173
Flags: W
HStem: 0 21G<61 151> 402 20G<59 151>
VStem: 59 92<0 422>
LayerCount: 2
Fore
SplineSet
36 535 m 0,0,1
 36 557.995 36 557.995 52.5 571.748 c 128,-1,2
 69 585.5 69 585.5 88.5 585.5 c 128,-1,3
 108 585.5 108 585.5 124.5 572.75 c 128,-1,4
 141 560 141 560 141 536 c 0,5,6
 141 511.005 141 511.005 124.5 496.502 c 128,-1,7
 108 482 108 482 88.5 482 c 128,-1,8
 69 482 69 482 52.5 495.998 c 128,-1,9
 36 509.995 36 509.995 36 535 c 0,0,1
40 422 m 1,10,-1
 132 422 l 1,11,-1
 132 0 l 1,12,-1
 41 0 l 1,13,-1
 40 422 l 1,10,-1
EndSplineSet
EndChar

StartChar: j
Encoding: 106 106 77
Width: 207
Flags: W
HStem: 402 20G<59 151>
VStem: 59 92<-116 422>
LayerCount: 2
Fore
SplineSet
57 535 m 0,0,1
 57 557.995 57 557.995 73.5 571.75 c 128,-1,2
 90 585.505 90 585.505 109.5 585.5 c 128,-1,3
 129 585.5 129 585.5 145.5 572.75 c 128,-1,4
 162 560 162 560 162 536 c 0,5,6
 162 511.005 162 511.005 145.5 496.5 c 128,-1,7
 129 481.995 129 481.995 109.5 482 c 128,-1,8
 90 482 90 482 73.5 496 c 128,-1,9
 57 509.995 57 509.995 57 535 c 0,0,1
59 422 m 1,10,-1
 151 422 l 1,11,-1
 151 -116 l 1,12,-1
 59 -116 l 1,13,-1
 59 422 l 1,10,-1
EndSplineSet
EndChar

StartChar: k
Encoding: 107 107 78
Width: 490
Flags: W
HStem: 0 21G<50 142 359 477> 404 20G<329 447> 728 20G<50 143>
VStem: 50 93<0 216 238 748>
LayerCount: 2
Fore
SplineSet
143 748 m 1,0,-1
 143 238 l 1,1,-1
 197 293 l 1,2,-1
 329 424 l 1,3,-1
 447 424 l 1,4,-1
 251 227 l 1,5,-1
 477 0 l 1,6,-1
 359 0 l 1,7,-1
 197 161 l 1,8,-1
 142 216 l 1,9,-1
 142 0 l 1,10,-1
 50 0 l 1,11,-1
 50 748 l 1,12,-1
 143 748 l 1,0,-1
EndSplineSet
EndChar

StartChar: l
Encoding: 108 108 79
Width: 194
Flags: W
HStem: 0 21G<44.8896 87.5 87.5 135>
VStem: 44.8896 90.1104<0 782>
LayerCount: 2
Fore
SplineSet
87.5 0 m 1,0,-1
 44.8896 0 l 1,1,-1
 44.8896 782 l 1,2,-1
 134.1 782 l 1,3,-1
 134.1 0 l 1,4,-1
 87.5 0 l 1,0,-1
EndSplineSet
EndChar

StartChar: m
Encoding: 109 109 80
Width: 696
Flags: W
HStem: 0 21G<47.19 131.55> 335 84.67<440.055 501.805> 341.45 82.55<168 296.526>
VStem: 47.19 84.36<0 324.59 352 410> 308.3 77.36<1.52588e-05 265.661> 552.39 84.38<1.52588e-05 249.981>
LayerCount: 2
Fore
SplineSet
349.52 358.5 m 1,0,1
 384.005 419.67 384.005 419.67 473.49 419.67 c 0,2,3
 636.765 419.67 636.765 419.67 636.77 223 c 2,4,-1
 636.77 1.52588e-05 l 1,5,-1
 552.39 1.52588e-05 l 1,6,-1
 552.39 215 l 2,7,8
 552.39 266.87 552.39 266.87 529.47 300.93 c 128,-1,9
 506.55 334.995 506.55 334.995 470.93 335 c 128,-1,10
 435.305 335 435.305 335 410.48 304.23 c 128,-1,11
 385.655 273.45 385.655 273.45 385.66 215 c 2,12,-1
 385.66 1.52588e-05 l 1,13,-1
 308.3 1.52588e-05 l 1,14,-1
 308.3 215 l 2,15,16
 308.3 341.45 308.3 341.45 219.93 341.45 c 128,-1,17
 131.55 341.45 131.55 341.45 131.55 215 c 2,18,-1
 131.55 0 l 1,19,-1
 47.19 0 l 1,20,-1
 47.19 410 l 1,21,-1
 133.56 410 l 1,22,-1
 133.56 352 l 1,23,24
 160.005 424 160.005 424 220 424 c 0,25,26
 335.995 424 335.995 424 349.52 358.5 c 1,0,1
EndSplineSet
EndChar

StartChar: n
Encoding: 110 110 81
Width: 414
Flags: W
HStem: 0 21G<296.65 376.5> 337 90.3<139.165 285.359>
VStem: 33.14 79.7<-3.05176e-05 322.208> 296.65 79.85<0 300.02>
LayerCount: 2
Fore
SplineSet
292.65 0 m 1,0,-1
 292.65 226.06 l 2,1,2
 292.65 337 292.65 337 212 337 c 0,3,4
 116.84 337 116.84 337 116.84 226.06 c 2,5,-1
 116.84 0 l 1,6,-1
 33.14 -3.05176e-05 l 1,7,-1
 33.14 410 l 1,8,-1
 113.52 410 l 1,9,-1
 113.52 353 l 1,10,11
 131.97 427.31 131.97 427.31 211.9 427.3 c 0,12,13
 376.5 427.3 376.5 427.3 376.5 226.06 c 2,14,-1
 376.5 0 l 1,15,-1
 292.65 0 l 1,0,-1
EndSplineSet
EndChar

StartChar: o
Encoding: 111 111 82
Width: 498
Flags: W
HStem: -12.6501 74.4<204.497 306.034> 356.61 76.17<207.68 294.406>
VStem: 16.7099 86.8601<167.676 250.014> 394.32 82.44<172.018 254.142>
LayerCount: 2
Fore
SplineSet
248.36 356.61 m 0,0,1
 202.7 356.61 202.7 356.61 168.85 334.39 c 0,2,3
 134.309 311.728 134.309 311.728 119.34 279.93 c 0,4,5
 103.57 246.409 103.57 246.409 103.57 215.47 c 0,6,7
 103.57 170.962 103.57 170.962 118.29 137.79 c 0,8,9
 132.78 105.12 132.78 105.12 166.11 83.4299 c 128,-1,10
 199.425 61.7399 199.425 61.7399 245.09 61.7499 c 0,11,12
 315.41 61.7499 315.41 61.7499 356.51 107.27 c 0,13,14
 384.02 137.735 384.02 137.735 391.49 180.98 c 0,15,16
 394.32 197.403 394.32 197.403 394.32 213.07 c 0,17,18
 394.32 238.849 394.32 238.849 386.71 263 c 0,19,20
 374.56 301.55 374.56 301.55 338.01 329.09 c 128,-1,21
 301.507 356.61 301.507 356.61 248.36 356.61 c 0,0,1
453.45 317.61 m 0,22,23
 476.76 268.425 476.76 268.425 476.76 210.57 c 128,-1,24
 476.76 152.685 476.76 152.685 451.9 102.95 c 128,-1,25
 426.94 53.0299 426.94 53.0299 372.53 20.1799 c 128,-1,26
 318.155 -12.6551 318.155 -12.6551 245.48 -12.6501 c 0,27,28
 171.8 -12.6501 171.8 -12.6501 117.42 20.1799 c 128,-1,29
 62.9544 53.0602 62.9544 53.0602 39.7599 103.05 c 0,30,31
 16.7099 152.767 16.7099 152.767 16.7099 210.57 c 128,-1,32
 16.7099 268.51 16.7099 268.51 42.3599 317.74 c 128,-1,33
 68.0849 367.12 68.0849 367.12 122.46 399.95 c 128,-1,34
 176.835 432.785 176.835 432.785 249.51 432.78 c 0,35,36
 323.22 432.78 323.22 432.78 376.59 399.93 c 128,-1,37
 430.005 367.065 430.005 367.065 453.45 317.61 c 0,22,23
EndSplineSet
EndChar

StartChar: p
Encoding: 112 112 83
Width: 447
Flags: W
HStem: -201 21G<38 118> -10 80.45<150.471 326.456> 348.55 71.45<164.023 326.524>
VStem: 38 80<-201 48 88.99 330.01 363 410> 343 85<88.99 330.01>
LayerCount: 2
Fore
SplineSet
212 -10 m 0,0,1
 141.005 -10 141.005 -10 118 48 c 1,2,-1
 118 -201 l 1,3,-1
 38 -201 l 1,4,-1
 38 410 l 1,5,-1
 119 410 l 1,6,-1
 119 363 l 1,7,8
 155.57 420 155.57 420 219 420 c 0,9,10
 427.995 420 427.995 420 428 210 c 0,11,12
 428 -10.005 428 -10.005 212 -10 c 0,0,1
218.92 70.45 m 0,13,14
 343 70.45 343 70.45 343 209.5 c 128,-1,15
 343 348.55 343 348.55 219.43 348.55 c 0,16,17
 118.96 348.55 118.96 348.55 118.96 209.5 c 128,-1,18
 118.96 70.45 118.96 70.45 218.92 70.45 c 0,13,14
EndSplineSet
EndChar

StartChar: q
Encoding: 113 113 84
Width: 450
Flags: W
HStem: -201 21G<341.26 420.87> -10.28 80.86<121.67 315.944> 339.33 80.74<121.615 309.587>
VStem: 23.64 80.31<88.564 321.485> 339.88 80.99<-201 -127.27 89.761 322.682 365.81 409.91>
LayerCount: 2
Fore
SplineSet
240.18 420.07 m 0,0,1
 320.265 420.07 320.265 420.07 339.88 365.81 c 1,2,-1
 339.88 409.91 l 1,3,-1
 420.87 409.91 l 1,4,-1
 420.87 -201 l 1,5,-1
 341.26 -201 l 1,6,-1
 341.26 35.34 l 1,7,8
 328.57 -7.29 328.57 -7.29 233.81 -10.28 c 0,9,10
 23.645 -10.28 23.645 -10.28 23.64 204.9 c 128,-1,11
 23.64 420.075 23.64 420.075 240.18 420.07 c 0,0,1
236.85 70.58 m 0,12,13
 341.625 70.58 341.625 70.58 341.63 214.47 c 0,14,15
 341.63 339.33 341.63 339.33 236.47 339.33 c 0,16,17
 103.945 339.33 103.945 339.33 103.95 205.46 c 0,18,19
 103.95 70.58 103.95 70.58 236.85 70.58 c 0,12,13
EndSplineSet
EndChar

StartChar: r
Encoding: 114 114 85
Width: 311
Flags: W
HStem: 0 21G<42 122> 405 20G<241.805 271>
VStem: 42 80<0 222.011 343 410>
LayerCount: 2
Fore
SplineSet
153.5 385 m 0,0,1
 202.415 425.005 202.415 425.005 261.5 425 c 0,2,3
 290 425 290 425 318 410 c 1,4,-1
 282 330 l 1,5,6
 255.003 335.999 255.003 335.999 222.5 328.5 c 128,-1,7
 189.995 321 189.995 321 170.5 300 c 128,-1,8
 151.01 279.011 151.01 279.011 136.5 247.5 c 128,-1,9
 121.995 216 121.995 216 122 189 c 2,10,-1
 122 0 l 1,11,-1
 42 0 l 1,12,-1
 42 410 l 1,13,-1
 123 410 l 1,14,-1
 123 343 l 1,15,-1
 123 344 l 2,16,17
 123 360.051 123 360.051 153.5 385 c 0,0,1
EndSplineSet
EndChar

StartChar: s
Encoding: 115 115 86
Width: 329
Flags: W
HStem: -10.07 81.57<91.8447 248.574> 355.67 75.7132<144.931 246.894>
LayerCount: 2
Fore
SplineSet
7.15 71.67 m 1,0,-1
 72.25 123.94 l 1,1,2
 109.929 71.5 109.929 71.5 170.21 71.5 c 128,-1,3
 230.49 71.5 230.49 71.5 230.49 123.94 c 0,4,5
 230.49 144.581 230.49 144.581 212.118 157.899 c 128,-1,6
 193.746 171.217 193.746 171.217 144.038 191.228 c 128,-1,7
 94.3295 211.238 94.3295 211.238 72.3327 245.027 c 128,-1,8
 50.3358 278.816 50.3358 278.816 50.3358 326.728 c 128,-1,9
 50.3358 374.64 50.3358 374.64 86.0219 403.012 c 128,-1,10
 121.708 431.383 121.708 431.383 168.054 431.383 c 0,11,12
 258.578 431.383 258.578 431.383 297.97 383.79 c 1,13,-1
 260.48 326.82 l 1,14,15
 230.072 357.883 230.072 357.883 174 355.5 c 0,16,17
 151.639 354.55 151.639 354.55 134.925 336.409 c 0,18,19
 124.944 325.574 124.944 325.574 127.61 304.99 c 0,20,21
 132.47 271.615 132.47 271.615 208.723 247.06 c 128,-1,22
 284.975 222.505 284.975 222.505 306.05 176.69 c 0,23,24
 338.029 105.641 338.029 105.641 296.655 47.7675 c 0,25,26
 255 -10 255 -10 170.62 -10.07 c 0,27,28
 65.5 -10 65.5 -10 7.15 71.67 c 1,0,-1
EndSplineSet
EndChar

StartChar: t
Encoding: 116 116 87
Width: 243
Flags: W
HStem: 0 21G<76.2998 163.01> 313.5 90<22.4297 76.2998 165 219.86>
VStem: 79.2803 85.7197<0 313.5 403.5 596.26>
LayerCount: 2
Fore
SplineSet
165 403.5 m 1,0,-1
 219.86 403.5 l 1,1,-1
 219.86 313.5 l 1,2,-1
 163.01 313.5 l 1,3,-1
 163.01 0 l 1,4,-1
 76.2998 0 l 1,5,-1
 76.2998 314.5 l 1,6,-1
 22.4297 314.5 l 1,7,-1
 22.4297 403.5 l 1,8,-1
 79.2803 403.5 l 1,9,-1
 79.2803 596.26 l 1,10,-1
 165 627.43 l 1,11,-1
 165 403.5 l 1,0,-1
EndSplineSet
EndChar

StartChar: u
Encoding: 117 117 88
Width: 394
Flags: W
HStem: -10.5 77.81<117.66 256.183>
VStem: 23 82<83.673 410> 288 76<87.131 410>
LayerCount: 2
Fore
SplineSet
23 199 m 2,0,-1
 23 410 l 1,1,-1
 109 410 l 1,2,-1
 109 190 l 2,3,4
 109 67.3148 109 67.3148 199.95 67.31 c 0,5,6
 284 67.31 284 67.31 284 216 c 2,7,-1
 284 410 l 1,8,-1
 364 410 l 1,9,-1
 364 0 l 1,10,-1
 281 0 l 1,11,-1
 281 37 l 1,12,13
 265.368 -11.4951 265.368 -11.4951 170.5 -10.5 c 0,14,15
 23 -10.5 23 -10.5 23 199 c 2,0,-1
EndSplineSet
EndChar

StartChar: v
Encoding: 118 118 89
Width: 395
Flags: W
HStem: -41.94 467.5<188.11 302.94>
VStem: -2.24999 388.3<400.65 401.53>
LayerCount: 2
Fore
SplineSet
386.05 401.53 m 1,0,-1
 188.11 -41.94 l 1,1,-1
 -2.24999 400.65 l 1,2,-1
 82.83 424.12 l 1,3,-1
 84.7 423.22 l 1,4,-1
 85.56 422.45 l 1,5,-1
 189.2 176.07 l 1,6,-1
 302.94 425.56 l 1,7,-1
 386.05 401.53 l 1,0,-1
EndSplineSet
EndChar

StartChar: w
Encoding: 119 119 90
Width: 579
Flags: W
HStem: -33.08 455.93<77.01 388.67>
LayerCount: 2
Fore
SplineSet
-0.85 396.1 m 1,0,-1
 77.01 422.85 l 1,1,-1
 188.13 173.24 l 1,2,-1
 288.42 396.1 l 1,3,-1
 388.71 173.24 l 1,4,-1
 503.26 422.53 l 1,5,-1
 577.69 396.1 l 1,6,-1
 388.67 -33.08 l 1,7,-1
 288.42 180.26 l 1,8,-1
 188.17 -33.08 l 1,9,-1
 -0.85 396.1 l 1,0,-1
EndSplineSet
EndChar

StartChar: x
Encoding: 120 120 91
Width: 375
Flags: W
HStem: -18.79 444.39<273.08 302.78>
VStem: 0.679993 376.14<24.44 25.39>
LayerCount: 2
Fore
SplineSet
141.82 228.31 m 1,0,-1
 24.59 398.03 l 1,1,-1
 117.36 424.66 l 1,2,-1
 192.63 303.21 l 1,3,-1
 273.08 425.6 l 1,4,-1
 353.43 397.89 l 1,5,-1
 241.54 229.18 l 1,6,-1
 376.82 25.39 l 1,7,-1
 376.48 23.97 l 1,8,-1
 302.78 -18.79 l 1,9,-1
 191.71 154.26 l 1,10,-1
 82.41 -18.72 l 1,11,-1
 0.679993 24.44 l 1,12,-1
 141.82 228.31 l 1,0,-1
EndSplineSet
EndChar

StartChar: y
Encoding: 121 121 92
Width: 450
Flags: W
VStem: 4.01001 409.56<401.5 402.34>
LayerCount: 2
Fore
SplineSet
157.17 71.81 m 1,0,-1
 4.01001 401.5 l 1,1,-1
 89.68 431.04 l 1,2,-1
 206.57 176.1 l 1,3,-1
 335.44 432.01 l 1,4,-1
 413.57 402.34 l 1,5,-1
 127.11 -187.43 l 1,6,-1
 21.92 -187.43 l 1,7,-1
 157.17 71.81 l 1,0,-1
EndSplineSet
EndChar

StartChar: z
Encoding: 122 122 93
Width: 416
Flags: W
HStem: 0 86<175 403> 332 82<92 246>
VStem: 10 393<0 86>
LayerCount: 2
Fore
SplineSet
68 332 m 1,0,-1
 92 414 l 1,1,-1
 397 414 l 1,2,-1
 175 86 l 1,3,-1
 403 86 l 1,4,-1
 403 0 l 1,5,-1
 10 0 l 1,6,-1
 246 332 l 1,7,-1
 68 332 l 1,0,-1
EndSplineSet
EndChar

StartChar: asciitilde
Encoding: 126 126 94
Width: 496
Flags: W
HStem: 500 98<155 369>
VStem: 150 224<535.604 562.396 546 552>
LayerCount: 2
Fore
SplineSet
282 559 m 1,0,1
 289.005 545.005 289.005 545.005 303 543.5 c 128,-1,2
 317 542 317 542 326 552.5 c 128,-1,3
 335.005 563.006 335.005 563.006 328 577 c 1,4,-1
 328 577.5 l 2,5,6
 328 578 328 578 327 579 c 1,7,-1
 369 598 l 1,8,-1
 369 597 l 1,9,10
 379 573 379 573 374 552 c 128,-1,11
 369.007 531.01 369.007 531.01 351 519.5 c 128,-1,12
 333.02 508.008 333.02 508.008 312.5 504 c 128,-1,13
 291.995 499.995 291.995 499.995 272 509 c 128,-1,14
 252.005 518 252.005 518 242 539 c 1,15,-1
 282 559 l 1,0,1
242 539 m 1,16,17
 234.995 552.995 234.995 552.995 221 554.5 c 128,-1,18
 207 556 207 556 198 545.5 c 128,-1,19
 188.995 534.995 188.995 534.995 196 521 c 1,20,-1
 196 520.5 l 2,21,22
 196 520 196 520 197 519 c 1,23,-1
 155 500 l 1,24,-1
 155 501 l 1,25,26
 145 525 145 525 150 546 c 128,-1,27
 154.993 566.99 154.993 566.99 173 578.5 c 128,-1,28
 190.98 589.992 190.98 589.992 211.5 594 c 128,-1,29
 232.005 598.005 232.005 598.005 252 589 c 128,-1,30
 271.995 580 271.995 580 282 559 c 1,31,-1
 242 539 l 1,16,17
EndSplineSet
EndChar

StartChar: exclamdown
Encoding: 161 161 95
Width: 238
Flags: W
HStem: 0 21G<68 148> 676 20G<101.665 116.335>
VStem: 68 80<0 441>
LayerCount: 2
Fore
SplineSet
68 0 m 1,0,-1
 68 441 l 1,1,-1
 148 441 l 1,2,-1
 148 0 l 1,3,-1
 68 0 l 1,0,-1
69 591.25 m 128,-1,5
 51 607 51 607 51 634.5 c 128,-1,6
 51 662 51 662 69 679 c 128,-1,7
 87 696 87 696 109 696 c 128,-1,8
 131.005 696 131.005 696 149 678.5 c 128,-1,9
 167 660.995 167 660.995 167 633 c 128,-1,10
 167 604.995 167 604.995 149 590.25 c 128,-1,11
 130.994 575.5 130.994 575.5 109 575.5 c 128,-1,4
 87 575.5 87 575.5 69 591.25 c 128,-1,5
EndSplineSet
EndChar

StartChar: yen
Encoding: 165 165 96
Width: 604
Flags: W
HStem: 112.02 87.99<48.2 256.04 355.43 551.21> 292.02 87.99<45.16 223.74 385.62 548.21> 672 20G<16.07 122.5 483.95 590.38>
VStem: 256.04 99.39<1.52588e-05 112.02 200.01 292.02>
LayerCount: 2
Fore
SplineSet
16.07 692 m 1,0,-1
 122.5 692 l 1,1,-1
 305.25 418.01 l 1,2,-1
 483.95 692 l 1,3,-1
 590.38 692 l 1,4,-1
 385.62 380.01 l 1,5,-1
 548.21 380.01 l 1,6,-1
 548.21 292.02 l 1,7,-1
 355.43 292.02 l 1,8,-1
 355.43 200.01 l 1,9,-1
 551.21 200.01 l 1,10,-1
 551.21 112.02 l 1,11,-1
 355.43 112.02 l 1,12,-1
 355.43 1.52588e-05 l 1,13,-1
 256.04 1.52588e-05 l 1,14,-1
 256.04 112.02 l 1,15,-1
 48.2 112.02 l 1,16,-1
 48.2 200.01 l 1,17,-1
 256.04 200.01 l 1,18,-1
 256.04 292.02 l 1,19,-1
 45.16 292.02 l 1,20,-1
 45.16 380.01 l 1,21,-1
 223.74 380.01 l 1,22,-1
 16.07 692 l 1,0,-1
EndSplineSet
EndChar

StartChar: scaron
Encoding: 259 353 97
Width: 413
Flags: W
HStem: 740 119<94.4 151.6 281.4 338.6>
VStem: 65 116<764.306 835.1> 252 116<764.306 835.1>
LayerCount: 2
Fore
SplineSet
65 800 m 0,0,1
 65 827 65 827 83 843 c 128,-1,2
 101 859 101 859 123 859 c 128,-1,3
 145 859 145 859 163 844 c 128,-1,4
 181 829 181 829 181 802 c 0,5,6
 181 773.005 181 773.005 163 756.5 c 128,-1,7
 145 740 145 740 123 740 c 128,-1,8
 101 740 101 740 83 756 c 128,-1,9
 65 772 65 772 65 800 c 0,0,1
252 800 m 0,10,11
 252 827 252 827 270 843 c 128,-1,12
 288 859 288 859 310 859 c 128,-1,13
 332 859 332 859 350 844 c 128,-1,14
 368 829 368 829 368 802 c 0,15,16
 368 773.005 368 773.005 350 756.5 c 128,-1,17
 332 740 332 740 310 740 c 128,-1,18
 288 740 288 740 270 756 c 128,-1,19
 252 772 252 772 252 800 c 0,10,11
EndSplineSet
EndChar

StartChar: guillemotleft
Encoding: 171 171 98
Width: 605
Flags: W
HStem: 138 292<237 444>
VStem: 33 411<292 428>
LayerCount: 2
Fore
SplineSet
444 428 m 1,0,-1
 444 341 l 1,1,-1
 366 288 l 1,2,-1
 444 229 l 1,3,-1
 444 138 l 1,4,-1
 241 289 l 1,5,-1
 444 428 l 1,0,-1
237 430 m 1,6,-1
 237 344 l 1,7,-1
 159 290 l 1,8,-1
 237 232 l 1,9,-1
 237 140 l 1,10,-1
 33 292 l 1,11,-1
 237 430 l 1,6,-1
EndSplineSet
EndChar

StartChar: degree
Encoding: 260 176 99
Width: 560
Flags: W
HStem: 730 136<254.39 305.61 280 280>
VStem: 210 46<786.775 818.449> 305 45<786.572 819.3>
LayerCount: 2
Fore
SplineSet
256 802 m 0,0,1
 256 787.875 256 787.875 268 782.16 c 128,-1,2
 279.997 776.431 279.997 776.431 292.5 782 c 128,-1,3
 304.995 787.565 304.995 787.565 305 803 c 0,4,5
 305 818.002 305 818.002 292.5 824.5 c 128,-1,6
 279.993 831.001 279.993 831.001 268 824 c 128,-1,7
 256 817 256 817 256 802 c 0,0,1
210 801 m 0,8,9
 210 832.995 210 832.995 232 849.5 c 128,-1,10
 254.005 866 254.005 866 280 866 c 128,-1,11
 305.995 866 305.995 866 328 847 c 128,-1,12
 350.005 827.995 350.005 827.995 350 799 c 0,13,14
 350 768 350 768 328 749 c 128,-1,15
 305.995 729.995 305.995 729.995 280 730 c 128,-1,16
 254.005 730 254.005 730 232 748.5 c 128,-1,17
 209.995 766.995 209.995 766.995 210 801 c 0,8,9
EndSplineSet
EndChar

StartChar: plusminus
Encoding: 261 177 100
Width: 495
Flags: W
HStem: 127 91<54 442> 474 90<62 202 293 429> 687 20G<202 292>
VStem: 203 90<318 473 564 707>
LayerCount: 2
Fore
SplineSet
442 127 m 1,0,-1
 54 127 l 1,1,-1
 54 218 l 1,2,-1
 442 218 l 1,3,-1
 442 127 l 1,0,-1
429 474 m 1,4,-1
 293 474 l 1,5,-1
 293 318 l 1,6,-1
 203 318 l 1,7,-1
 203 473 l 1,8,-1
 62 473 l 1,9,-1
 62 561 l 1,10,-1
 202 561 l 1,11,-1
 202 707 l 1,12,-1
 292 707 l 1,13,-1
 292 564 l 1,14,-1
 429 564 l 1,15,-1
 429 474 l 1,4,-1
EndSplineSet
EndChar

StartChar: uni00B2
Encoding: 262 178 101
Width: 402
Flags: W
HStem: 525 46<243 380>
VStem: 151 229<525 571>
LayerCount: 2
Fore
SplineSet
151 525 m 1,0,-1
 303 723 l 2,1,2
 329 763 329 763 324 794 c 128,-1,3
 319.005 825.005 319.005 825.005 285 833 c 0,4,5
 268.006 837.005 268.006 837.005 246.5 828 c 128,-1,6
 225.005 819 225.005 819 218 798 c 1,7,-1
 179 823 l 1,8,9
 204.995 875.995 204.995 875.995 275 876 c 0,10,11
 324.995 876 324.995 876 350 849 c 128,-1,12
 375.005 822 375.005 822 369.5 778 c 128,-1,13
 363.995 734.005 363.995 734.005 329 685 c 2,14,-1
 243 571 l 1,15,-1
 380 571 l 1,16,-1
 380 525 l 1,17,-1
 201 525 l 1,18,-1
 151 525 l 1,0,-1
EndSplineSet
EndChar

StartChar: uni00B3
Encoding: 263 179 102
Width: 382
Flags: W
HStem: 431.133 22.44<234.979 272.759> 518.343 20.4<244.607 266.027>
VStem: 201.257 113.985<444.393 497.688>
LayerCount: 2
Fore
SplineSet
163.454 844.165 m 1,0,-1
 160.435 844.215 l 1,1,-1
 160.435 888 l 1,2,-1
 373.906 888 l 1,3,-1
 273.508 748.616 l 1,4,5
 317.928 739.422 317.928 739.422 340.534 715.555 c 128,-1,6
 363.141 691.688 363.141 691.688 363.141 640.965 c 128,-1,7
 363.141 590.242 363.141 590.242 327.394 557.28 c 128,-1,8
 291.646 524.317 291.646 524.317 236.846 524.317 c 0,9,10
 180.343 524.317 180.343 524.317 125.276 552.708 c 1,11,-1
 152.729 590.231 l 1,12,-1
 154.332 590.622 l 1,13,14
 199.203 568.733 199.203 568.733 226.201 568.733 c 0,15,16
 298 568.733 298 568.733 314.873 611.799 c 0,17,18
 319.565 623.776 319.565 623.776 319.565 642.979 c 0,19,20
 319.565 675.045 319.565 675.045 286.229 696 c 0,21,22
 251.633 717.746 251.633 717.746 204.977 717.746 c 1,23,-1
 198.879 717.746 l 1,24,-1
 292.142 844.32 l 1,25,26
 282.453 844.165 282.453 844.165 253.312 844.165 c 1,27,-1
 163.454 844.165 l 1,0,-1
EndSplineSet
EndChar

StartChar: Zcaron
Encoding: 264 381 103
Width: 1000
Flags: W
HStem: 791 194<334 424>
VStem: 284 202<838 912>
LayerCount: 2
Fore
SplineSet
424 985 m 1,0,-1
 486 912 l 1,1,-1
 334 791 l 1,2,-1
 284 838 l 1,3,-1
 424 985 l 1,0,-1
EndSplineSet
EndChar

StartChar: uni00B9
Encoding: 265 185 104
Width: 284
Flags: W
VStem: 174 49<530 786>
LayerCount: 2
Fore
SplineSet
174 786 m 1,0,-1
 161 772 l 1,1,-1
 130 800 l 1,2,-1
 197 863 l 1,3,-1
 222 890 l 1,4,-1
 222 832 l 1,5,-1
 223 832 l 1,6,-1
 223 569 l 1,7,-1
 224 569 l 1,8,-1
 224 530 l 1,9,-1
 175 530 l 1,10,-1
 175 569 l 1,11,-1
 174 786 l 1,0,-1
EndSplineSet
EndChar

StartChar: guillemotright
Encoding: 187 187 105
Width: 605
Flags: W
HStem: 138 292<34 242>
VStem: 34 411<292 428>
LayerCount: 2
Fore
SplineSet
34 428 m 1,0,-1
 238 289 l 1,1,-1
 34 138 l 1,2,-1
 34 229 l 1,3,-1
 112 288 l 1,4,-1
 34 341 l 1,5,-1
 34 428 l 1,0,-1
242 430 m 1,6,-1
 445 292 l 1,7,-1
 242 140 l 1,8,-1
 242 232 l 1,9,-1
 320 290 l 1,10,-1
 242 344 l 1,11,-1
 242 430 l 1,6,-1
EndSplineSet
EndChar

StartChar: questiondown
Encoding: 191 191 106
Width: 399
Flags: W
HStem: -3.05176e-05 77<162.529 294.973> 729 20G<253.665 268.335>
VStem: 47 82<109.929 220.683> 216 88<441.795 529>
LayerCount: 2
Fore
SplineSet
399 70 m 1,0,1
 336.78 -0.00499725 336.78 -0.00499725 231 -3.05176e-05 c 0,2,3
 151.995 -3.05176e-05 151.995 -3.05176e-05 99.5 49.5 c 128,-1,4
 47 99 47 99 47 181 c 0,5,6
 47 223.005 47 223.005 64.47 256.97 c 128,-1,7
 81.945 290.93 81.945 290.93 124 335 c 2,8,-1
 166 379 l 2,9,10
 202.405 417.145 202.405 417.145 209.21 438.57 c 128,-1,11
 216 459.989 216 459.989 216 512 c 2,12,-1
 218 529 l 1,13,-1
 304 529 l 1,14,-1
 304 501 l 2,15,16
 304 442.995 304 442.995 288.83 412.21 c 128,-1,17
 273.665 381.43 273.665 381.43 234 339 c 2,18,-1
 191 292 l 2,19,20
 187.535 288.285 187.535 288.285 176.23 277.6 c 128,-1,21
 164.981 266.982 164.981 266.982 157 256.5 c 128,-1,22
 148.94 245.915 148.94 245.915 142.5 236.5 c 0,23,24
 129 216.775 129 216.775 129 191 c 0,25,26
 129 77 129 77 244 77 c 0,27,28
 302.815 77 302.815 77 330.5 109.5 c 0,29,30
 342.008 123.004 342.008 123.004 357 139 c 1,31,-1
 399 70 l 1,0,1
301 733 m 128,-1,33
 319 716.995 319 716.995 319 689.5 c 128,-1,34
 319 662.005 319 662.005 301 646.25 c 128,-1,35
 283 630.5 283 630.5 261 630.5 c 128,-1,36
 239.006 630.5 239.006 630.5 221 645.25 c 128,-1,37
 203 659.995 203 659.995 203 688 c 128,-1,38
 203 716.005 203 716.005 221 732.5 c 128,-1,39
 239 749 239 749 261 749 c 128,-1,32
 283 749 283 749 301 733 c 128,-1,33
EndSplineSet
EndChar

StartChar: multiply
Encoding: 284 215 125
Width: 495
Flags: W
HStem: 187 338<143 355>
VStem: 79 340<251 461>
LayerCount: 2
Fore
SplineSet
405 457 m 1,0,-1
 309 360 l 1,1,-1
 419 251 l 1,2,-1
 355 187 l 1,3,-1
 245 296 l 1,4,-1
 147 196 l 1,5,-1
 83 260 l 1,6,-1
 184 361 l 1,7,-1
 79 461 l 1,8,-1
 143 525 l 1,9,-1
 245 424 l 1,10,-1
 341 521 l 1,11,-1
 405 457 l 1,0,-1
EndSplineSet
EndChar

StartChar: dotlessi
Encoding: 245 305 158
Width: 207
Flags: W
HStem: 0 21G<61 151> 413 20G<59 151>
VStem: 59 92<0 433>
LayerCount: 2
Fore
SplineSet
59 433 m 1,0,-1
 151 433 l 1,1,-1
 151 0 l 1,2,-1
 61 0 l 1,3,-1
 59 433 l 1,0,-1
EndSplineSet
EndChar

StartChar: uni030A
Encoding: 325 778 167
Width: 154
Flags: W
HStem: 719.5 135.5<50.3903 101.61 76 76>
VStem: 6 46<773.744 808.256> 101 45<774.595 808.3>
LayerCount: 2
Fore
SplineSet
52 791 m 128,-1,1
 52 774.995 52 774.995 64 768.5 c 128,-1,2
 76.0116 761.999 76.0116 761.999 88.5 769 c 128,-1,3
 101 776.008 101 776.008 101 792 c 0,4,5
 101 807.002 101 807.002 88.5 813.5 c 128,-1,6
 76.0024 819.996 76.0024 819.996 64 813.5 c 128,-1,0
 52 807.005 52 807.005 52 791 c 128,-1,1
6 790 m 0,7,8
 6 823 6 823 28 839 c 128,-1,9
 50.005 855.005 50.005 855.005 76 855 c 128,-1,10
 101.995 855 101.995 855 124 836 c 128,-1,11
 146.005 816.995 146.005 816.995 146 788 c 0,12,13
 146 756.995 146 756.995 124 738.25 c 128,-1,14
 101.995 719.5 101.995 719.5 76 719.5 c 128,-1,15
 50.005 719.5 50.005 719.5 28 737.75 c 128,-1,16
 6 756.001 6 756.001 6 790 c 0,7,8
EndSplineSet
EndChar

StartChar: quoteleft
Encoding: 96 8216 168
Width: 187
Flags: W
HStem: 567.5 178.5<89 113>
VStem: 40 61<616 696>
LayerCount: 2
Fore
SplineSet
127 620 m 1,0,1
 129.998 601.008 129.998 601.008 117.5 586.5 c 128,-1,2
 105.005 571.995 105.005 571.995 89 567.5 c 128,-1,3
 72.9986 563.001 72.9986 563.001 56.5 575 c 128,-1,4
 40 587 40 587 40 616 c 0,5,6
 40 661 40 661 63 699 c 128,-1,7
 86 737 86 737 113 746 c 1,8,9
 101 732.005 101 732.005 101 696 c 128,-1,10
 101 660 101 660 112 645 c 1,11,12
 127 634 127 634 127 620 c 1,0,1
EndSplineSet
EndChar

StartChar: quoteright
Encoding: 39 8217 169
Width: 187
Flags: W
HStem: 558 179.5<80 89.5>
LayerCount: 2
Fore
SplineSet
56 682 m 0,0,1
 56 701.005 56 701.005 65 716.5 c 128,-1,2
 73.9987 731.993 73.9987 731.993 89.5 737.5 c 128,-1,3
 104.985 743.002 104.985 743.002 121 732 c 128,-1,4
 137.005 721.005 137.005 721.005 142 693 c 0,5,6
 148 649.005 148 649.005 126.5 609 c 128,-1,7
 105.005 568.995 105.005 568.995 80 558 c 1,8,9
 87 574 87 574 87 611 c 128,-1,10
 87 648.005 87 648.005 71.5 658 c 128,-1,11
 56.005 668.005 56.005 668.005 56 682 c 0,0,1
EndSplineSet
EndChar

StartChar: quotedblleft
Encoding: 170 8220 170
Width: 292
Flags: W
HStem: 567.5 180.5<89 235>
VStem: 40 61<616 696> 162 61.5<618 696>
LayerCount: 2
Fore
SplineSet
250 622 m 0,0,1
 250 604 250 604 239 589 c 128,-1,2
 228.011 574.008 228.011 574.008 211.5 570 c 128,-1,3
 195.005 565.996 195.005 565.996 178.5 578 c 128,-1,4
 162 590 162 590 162 618 c 0,5,6
 162 663 162 663 185 701 c 128,-1,7
 208 739 208 739 235 748 c 1,8,9
 223.495 732.505 223.495 732.505 223.5 696 c 128,-1,10
 223.5 659.505 223.5 659.505 234 648 c 1,11,12
 250 637 250 637 250 622 c 0,0,1
127 620 m 1,13,14
 129.998 601.008 129.998 601.008 117.5 586.5 c 128,-1,15
 105.005 571.995 105.005 571.995 89 567.5 c 128,-1,16
 72.9986 563.001 72.9986 563.001 56.5 575 c 128,-1,17
 40 587 40 587 40 616 c 0,18,19
 40 661 40 661 63 699 c 128,-1,20
 86 737 86 737 113 746 c 1,21,22
 101 732.005 101 732.005 101 696 c 128,-1,23
 101 660 101 660 112 645 c 1,24,25
 127 634 127 634 127 620 c 1,13,14
EndSplineSet
EndChar

StartChar: quotedblright
Encoding: 186 8221 171
Width: 358
Flags: W
HStem: 558 182<80 224.5>
LayerCount: 2
Fore
SplineSet
191 685 m 1,0,1
 187 703 187 703 198 719 c 128,-1,2
 208.992 735.001 208.992 735.001 224.5 740 c 128,-1,3
 239.995 744.995 239.995 744.995 256 734.5 c 128,-1,4
 272.005 724 272.005 724 277 696 c 0,5,6
 283 651.003 283 651.003 261.5 611.5 c 128,-1,7
 240.005 572.005 240.005 572.005 215 560 c 1,8,9
 222 576 222 576 222 613 c 128,-1,10
 222 650.005 222 650.005 206.5 661.03 c 128,-1,11
 191.005 672.055 191.005 672.055 191 685 c 1,0,1
56 682 m 0,12,13
 56 701.005 56 701.005 65 716.5 c 128,-1,14
 73.9987 731.993 73.9987 731.993 89.5 737.5 c 128,-1,15
 104.985 743.002 104.985 743.002 121 732 c 128,-1,16
 137.005 721.005 137.005 721.005 142 693 c 0,17,18
 148 649.005 148 649.005 126.5 609 c 128,-1,19
 105.005 568.995 105.005 568.995 80 558 c 1,20,21
 87 574 87 574 87 611 c 128,-1,22
 87 648.005 87 648.005 71.5 658 c 128,-1,23
 56.005 668.005 56.005 668.005 56 682 c 0,12,13
EndSplineSet
EndChar

StartChar: uniFB00
Encoding: 326 64256 172
Width: 520
Flags: W
LayerCount: 2
Fore
SplineSet
275.402 0 m 5,0,-1
 275.402 332 l 5,1,-1
 241.096 332 l 5,2,-1
 241.096 410 l 5,3,-1
 279.323 410 l 5,4,5
 279.323 479.419 279.323 479.419 292.558 528.067 c 5,6,7
 279.965 563.5 279.965 563.5 234.596 564 c 4,8,9
 167.415 564.604 167.415 564.604 167.415 410 c 5,10,-1
 226.438 410 l 5,11,-1
 226.438 330 l 5,12,-1
 165.448 330 l 5,13,-1
 165.448 0 l 5,14,-1
 83.9814 0 l 5,15,-1
 83.9814 332 l 5,16,-1
 34.832 332 l 5,17,-1
 34.832 410 l 5,18,-1
 87.9014 410 l 5,19,20
 87.9014 643.665 87.9014 643.665 233.722 642 c 4,21,22
 296.102 641.288 296.102 641.288 325.242 599.504 c 5,23,24
 364.635 642 364.635 642 427.141 642 c 4,25,26
 449.536 642 449.536 642 471.225 632.807 c 132,-1,27
 492.914 623.613 492.914 623.613 503.254 608.37 c 5,28,-1
 455.647 547 l 5,29,30
 437.642 556.704 437.642 556.704 412.576 552.148 c 4,31,32
 387 547.5 387 547.5 372.534 528 c 4,33,34
 356.835 505.808 356.835 505.808 356.835 410 c 5,35,-1
 428.543 410 l 5,36,-1
 428.543 330 l 5,37,-1
 357.87 330 l 5,38,-1
 357.87 0 l 5,39,-1
 275.402 0 l 5,0,-1
EndSplineSet
LCarets2: 1 0 
Ligature2: "'liga' Standard Ligatures in Latin lookup 0 subtable" f f
EndChar

StartChar: germandbls
Encoding: 251 223 173
Width: 413
Flags: W
HStem: 344.01 79.99<6.07031 62.1396> 344.01 75.67<149.67 301.35>
VStem: 62.1396 84.1904<0 344.01> 66.62 83.05<419.68 487.091>
LayerCount: 2
Fore
SplineSet
229.17 641.98 m 0,0,1
 248.686 642.115 248.686 642.115 262.91 638.48 c 0,2,3
 294.988 630.007 294.988 630.007 309.92 615.99 c 1,4,-1
 261.7 546.99 l 1,5,-1
 242.63 556.02 l 1,6,7
 221.675 556.02 221.675 556.02 213.975 555.41 c 128,-1,8
 206.275 554.801 206.275 554.801 192.982 547.89 c 128,-1,9
 179.689 540.978 179.689 540.978 168.74 525.84 c 0,10,11
 149.67 499.473 149.67 499.473 149.67 419.68 c 1,12,-1
 390.16 419.68 l 1,13,-1
 390.16 344.01 l 1,14,-1
 327.78 244.65 l 1,15,16
 385.815 191.475 385.815 191.475 385.82 97.53 c 0,17,18
 385.82 6.075 385.82 6.075 298.4 -58.91 c 1,19,-1
 204 -58.9102 l 1,20,21
 292.258 6.51519 292.258 6.51519 304.66 87.0596 c 128,-1,22
 317.08 167.61 317.08 167.61 238.07 244.65 c 1,23,-1
 301.35 344.01 l 1,24,-1
 146.33 344.01 l 1,25,-1
 146.33 0 l 1,26,-1
 62.14 -6.10352e-05 l 1,27,-1
 62.1396 344.01 l 1,28,-1
 6.07031 344.01 l 1,29,-1
 6.07 424 l 1,30,-1
 66.62 424 l 1,31,32
 66.62 485.005 66.62 485.005 83.42 529.49 c 0,33,34
 100.37 574.34 100.37 574.34 127.73 597.51 c 0,35,36
 163.64 627.9 163.64 627.9 171.44 631.48 c 0,37,38
 200.03 641.98 200.03 641.98 229.17 641.98 c 0,0,1
EndSplineSet
EndChar

StartChar: longs
Encoding: 327 383 174
Width: 274
Flags: W
HStem: 0 21G<45 125>
VStem: 45 80<0 487.471>
LayerCount: 2
Fore
SplineSet
45 421 m 2,0,1
 45 547.18 45 547.18 109 605 c 0,2,3
 149.95 642.005 149.95 642.005 190 642 c 0,4,5
 254.68 642 254.68 642 267 622 c 1,6,-1
 219 547 l 1,7,-1
 202 556 l 1,8,9
 166 556 166 556 145.5 527 c 128,-1,10
 124.995 498.005 124.995 498.005 125 419 c 2,11,-1
 125 0 l 1,12,-1
 45 0 l 1,13,-1
 45 421 l 2,0,1
EndSplineSet
EndChar

StartChar: cent
Encoding: 162 162 175
Width: 588
Flags: W
VStem: 130.4 76.8<321.6 400.64> 296.8 61.6<93.6 172.8 244.8 477.6 548.8 610.4>
LayerCount: 2
Fore
SplineSet
445.6 445.6 m 1,0,1
 401.612 478.4 401.612 478.4 358.4 478.4 c 1,2,-1
 358.4 244.8 l 1,3,4
 406.044 256.01 406.044 256.01 445.6 282.4 c 1,5,-1
 445.6 200.8 l 1,6,7
 401.613 172.8 401.613 172.8 358.4 172.8 c 1,8,-1
 358.4 93.6 l 1,9,-1
 296.8 93.6 l 1,10,-1
 296.8 174.4 l 1,11,12
 224.005 174.4 224.005 174.4 177.2 228.4 c 128,-1,13
 130.4 282.4 130.4 282.4 130.4 357.6 c 0,14,15
 130.4 433.605 130.4 433.605 175.6 484.4 c 0,16,17
 221.44 535.205 221.44 535.205 296.8 547.2 c 1,18,-1
 296.8 610.4 l 1,19,-1
 358.4 610.4 l 1,20,-1
 358.4 548.8 l 1,21,22
 391.205 548.8 391.205 548.8 445.6 525.6 c 1,23,-1
 445.6 445.6 l 1,0,1
296.8 477.6 m 1,24,25
 259.9 470.4 259.9 470.4 233.2 438.4 c 0,26,27
 207.205 406.405 207.205 406.405 207.2 363.2 c 0,28,29
 207.2 315.2 207.2 315.2 232 284 c 0,30,31
 257.515 252.8 257.515 252.8 296.8 244.8 c 1,32,-1
 296.8 477.6 l 1,24,25
EndSplineSet
EndChar

StartChar: Euro
Encoding: 328 8364 176
Width: 524
Flags: W
HStem: 42.22 78.12<208.753 380.99> 263.13 70.17<12.54 63.91 143.4 359.98> 391.9 70.07<19.4 69.7 146.05 382.42> 595.74 83.08<200.351 374.528>
VStem: 69.7 68.41<333.3 391.9>
LayerCount: 2
Fore
SplineSet
466.21 187.38 m 1,0,-1
 466.21 89.84 l 1,1,2
 398.8 42.215 398.8 42.215 306.36 42.22 c 0,3,4
 130.47 42.22 130.47 42.22 72.24 263.13 c 1,5,-1
 -6.85996 263.13 l 1,6,-1
 12.54 333.3 l 1,7,-1
 63.91 333.3 l 1,8,9
 69.7 336.24 69.7 336.24 69.7 391.9 c 1,10,-1
 3.62396e-05 391.9 l 1,11,-1
 19.4 461.97 l 1,12,-1
 70.09 461.97 l 1,13,14
 109.66 678.825 109.66 678.825 310.1 678.82 c 0,15,16
 384.445 678.82 384.445 678.82 460.36 619.42 c 1,17,-1
 460.36 524.3 l 1,18,19
 396.07 595.745 396.07 595.745 318.04 595.74 c 0,20,21
 182.245 595.74 182.245 595.74 146.05 461.97 c 1,22,-1
 411.14 461.97 l 1,23,-1
 382.42 391.9 l 1,24,-1
 138.11 391.9 l 1,25,-1
 138.11 333.3 l 1,26,-1
 388.6 333.3 l 1,27,-1
 359.98 263.13 l 1,28,-1
 143.4 263.13 l 1,29,30
 192.75 120.345 192.75 120.345 312.74 120.34 c 0,31,32
 391.474 120.34 391.474 120.34 466.21 187.38 c 1,0,-1
EndSplineSet
EndChar

StartChar: fi
Encoding: 174 64257 177
Width: 472
Flags: W
HStem: 323.01 80.0098<31.1201 81.3398 164.72 303.67> 551.17 83.83<188.344 321.766>
VStem: 81.3398 80.3799<3.05176e-05 323.01> 85.3496 79.3701<403.02 525.058> 304.57 79.07<3.05176e-05 323.01 476.47 573.58>
LayerCount: 2
Fore
SplineSet
383.64 476.47 m 1,0,-1
 304.57 476.47 l 1,1,2
 304.57 551.17 304.57 551.17 247.25 551.17 c 0,3,4
 201.938 551.17 201.938 551.17 183.32 524.03 c 128,-1,5
 164.72 496.895 164.72 496.895 164.72 403.02 c 1,6,-1
 383.64 403.02 l 1,7,-1
 383.64 3.05176e-05 l 1,8,-1
 303.67 3.05176e-05 l 1,9,-1
 303.67 323.01 l 1,10,-1
 161.72 323.01 l 1,11,-1
 161.72 3.05176e-05 l 1,12,-1
 81.34 3.05176e-05 l 1,13,-1
 81.3398 324.99 l 1,14,-1
 31.1201 324.99 l 1,15,-1
 31.1201 403.02 l 1,16,-1
 85.3496 403.02 l 1,17,18
 85.3496 533.52 85.3496 533.52 131.42 584.26 c 128,-1,19
 177.5 635.005 177.5 635.005 245 635 c 0,20,21
 383.63 635 383.63 635 383.64 476.47 c 1,0,-1
EndSplineSet
LCarets2: 1 0 
Ligature2: "'liga' Standard Ligatures in Latin lookup 0 subtable" f i
EndChar

StartChar: fl
Encoding: 175 64258 178
Width: 477
Flags: W
HStem: 0 21G<81.34 161.72 333.41 413.79> 323.01 80.0098<31.1201 81.3398 164.71 268.15> 567.76 74.51<205.21 333.41>
VStem: 81.3398 80.3799<0 323.01> 85.3496 79.3604<403.02 547.665> 333.41 80.38<0 567.76>
LayerCount: 2
Fore
SplineSet
413.79 641.26 m 1,0,-1
 413.79 0 l 1,1,-1
 333.41 0 l 1,2,-1
 333.41 567.76 l 1,3,-1
 254.77 567.76 l 2,4,5
 205.21 567.76 205.21 567.76 184.96 541.03 c 128,-1,6
 164.71 514.285 164.71 514.285 164.71 403.02 c 5,7,-1
 268.15 403.02 l 5,8,-1
 268.15 323.01 l 5,9,-1
 161.72 323.01 l 5,10,-1
 161.72 0 l 1,11,-1
 81.34 0 l 1,12,-1
 81.3398 324.99 l 5,13,-1
 31.1201 324.99 l 5,14,-1
 31.1201 403.02 l 5,15,-1
 85.3496 403.02 l 5,16,17
 85.3496 524.984 85.3496 524.984 124.29 578.87 c 0,18,19
 170.685 643.085 170.685 643.085 261.85 642.27 c 0,20,21
 374.888 641.26 374.888 641.26 413.79 641.26 c 1,0,-1
EndSplineSet
LCarets2: 1 0 
Ligature2: "'liga' Standard Ligatures in Latin lookup 0 subtable" f l
EndChar

StartChar: uniFB06
Encoding: 329 64262 179
Width: 429
Flags: W
HStem: 0 21G<262.53 341.99> 339.02 85<216.81 262.53 343.21 393.66> 570.15 71.54<174.643 266.51>
VStem: 44.77 78.67<-3.05176e-05 474.112> 262.53 79.46<0 339.02> 266.51 76.7<424.02 570.15>
LayerCount: 2
Fore
SplineSet
204.25 641.69 m 2,0,-1
 353.21 641.69 l 1,1,-1
 353.21 424.02 l 1,2,-1
 403.66 424.02 l 1,3,-1
 403.66 339.02 l 1,4,-1
 351.99 339.02 l 1,5,-1
 351.99 0 l 1,6,-1
 262.53 0 l 1,7,-1
 262.53 339.98 l 1,8,-1
 216.81 339.98 l 1,9,-1
 216.81 424.02 l 1,10,-1
 266.51 424.02 l 1,11,-1
 266.51 570.15 l 1,12,-1
 216.23 570.15 l 2,13,14
 168.245 570.15 168.245 570.15 141.19 526.56 c 0,15,16
 123.44 497.97 123.44 497.97 123.44 419.02 c 2,17,-1
 123.44 -3.05176e-05 l 1,18,-1
 36.7695 0 l 1,19,-1
 34.7695 420.99 l 2,20,21
 34.587 459.421 34.587 459.421 53.75 522.61 c 0,22,23
 66.7736 566.71 66.7736 566.71 99.0898 597.51 c 0,24,25
 145.446 641.69 145.446 641.69 204.25 641.69 c 2,0,-1
EndSplineSet
LCarets2: 1 0 
Ligature2: "'dlig' optionale Ligaturen in Latin lookup 1 subtable" s t
EndChar

StartChar: emdash
Encoding: 208 8212 180
Width: 734
Flags: W
HStem: 222 81<49 438>
LayerCount: 2
Fore
SplineSet
685 222 m 5,0,-1
 49 222 l 1,1,-1
 49 303 l 1,2,-1
 685 303 l 5,3,-1
 685 222 l 5,0,-1
EndSplineSet
EndChar

StartChar: endash
Encoding: 177 8211 181
Width: 470
Flags: W
HStem: 222 81<49 438>
LayerCount: 2
Fore
SplineSet
438 222 m 5,0,-1
 49 222 l 5,1,-1
 49 303 l 5,2,-1
 438 303 l 5,3,-1
 438 222 l 5,0,-1
EndSplineSet
EndChar
